<?xml version="1.0" encoding="UTF-8"?>
<svg id="Capa_2" data-name="Capa 2" xmlns="http://www.w3.org/2000/svg" xmlns:xlink="http://www.w3.org/1999/xlink" viewBox="0 0 542.08 197.49">
  <defs>
    <style>
      .cls-1 {
        fill: #fff;
      }

      .cls-2 {
        clip-path: url(#clippath);
      }
    </style>
    <clipPath id="clippath">
      <path class="cls-1" d="M246.38,85.19l.02.02c-.47,1.12-.98,2.25-1.54,3.4-9.23-7.37-27.03-22.53-27.03-22.53-4.78-29.73-24.95-49.9-24.95-49.9l-2.7,12.69-9.57-7.91-.21,28.7-11.85,6.44c-11.85,6.45-16.22,17.88-16.22,17.88l-18.16,14.98s-3.04-1.67-9.7,3.11c-6.65,4.79,1.34,11.65,1.34,11.65,3.42,21,19.46,27.24,33.8,26.4,14.35-.83,22.04,1.87,22.04,1.87l9.45,16.82c-32.05,27.19-65.29,48.68-65.29,48.68,0,0-36.05-23.3-69.26-52.09.6-2.34,1.46-5.06,2.64-8.21,6.23-16.63,7.48-15.59,20.58-17.46,13.1-1.87,14.55-10.81,17.67-13.93s3.95-7.28,0-9.36c-3.95-2.08-3.12-6.03-5.82-14.55-2.7-8.53-22.04-19.34-22.04-19.34l-2.7-19.96c-12.26,3.29-44.18,48.96-51.64,59.85-4.26-5.91-7.7-11.69-10.01-17.23v-.02c-3.35-7.56-5.23-15.95-5.23-24.79C0,27.04,26.62,0,59.46,0c3.97,0,7.85.4,11.6,1.16h0s31.28,3.85,54.75,27.95C149.28,5.01,180.56,1.15,180.56,1.15h.01c3.75-.75,7.62-1.15,11.59-1.15,32.84,0,59.47,27.04,59.47,60.4,0,8.84-1.89,17.23-5.25,24.79Z"/>
    </clipPath>
  </defs>
  <g id="Capa_1-2" data-name="Capa 1">
    <g>
      <g>
        <path class="cls-1" d="M246.38,85.19l.02.02c-.47,1.12-.98,2.25-1.54,3.4-9.23-7.37-27.03-22.53-27.03-22.53-4.78-29.73-24.95-49.9-24.95-49.9l-2.7,12.69-9.57-7.91-.21,28.7-11.85,6.44c-11.85,6.45-16.22,17.88-16.22,17.88l-18.16,14.98s-3.04-1.67-9.7,3.11c-6.65,4.79,1.34,11.65,1.34,11.65,3.42,21,19.46,27.24,33.8,26.4,14.35-.83,22.04,1.87,22.04,1.87l9.45,16.82c-32.05,27.19-65.29,48.68-65.29,48.68,0,0-36.05-23.3-69.26-52.09.6-2.34,1.46-5.06,2.64-8.21,6.23-16.63,7.48-15.59,20.58-17.46,13.1-1.87,14.55-10.81,17.67-13.93s3.95-7.28,0-9.36c-3.95-2.08-3.12-6.03-5.82-14.55-2.7-8.53-22.04-19.34-22.04-19.34l-2.7-19.96c-12.26,3.29-44.18,48.96-51.64,59.85-4.26-5.91-7.7-11.69-10.01-17.23v-.02c-3.35-7.56-5.23-15.95-5.23-24.79C0,27.04,26.62,0,59.46,0c3.97,0,7.85.4,11.6,1.16h0s31.28,3.85,54.75,27.95C149.28,5.01,180.56,1.15,180.56,1.15h.01c3.75-.75,7.62-1.15,11.59-1.15,32.84,0,59.47,27.04,59.47,60.4,0,8.84-1.89,17.23-5.25,24.79Z"/>
        <g class="cls-2">
          <rect class="cls-1" x="0" y="0" width="3.07" height="197.49"/>
          <rect class="cls-1" x="3.07" y="0" width="3.07" height="197.49"/>
          <rect class="cls-1" x="6.14" y="0" width="3.07" height="197.49"/>
          <rect class="cls-1" x="9.21" y="0" width="3.07" height="197.49"/>
          <rect class="cls-1" x="12.27" y="0" width="3.07" height="197.49"/>
          <rect class="cls-1" x="15.34" y="0" width="3.07" height="197.49"/>
          <rect class="cls-1" x="18.41" y="0" width="3.07" height="197.49"/>
          <rect class="cls-1" x="21.48" y="0" width="3.07" height="197.49"/>
          <rect class="cls-1" x="24.55" y="0" width="3.07" height="197.49"/>
          <rect class="cls-1" x="27.62" y="0" width="3.07" height="197.49"/>
          <rect class="cls-1" x="30.69" y="0" width="3.07" height="197.49"/>
          <rect class="cls-1" x="33.76" y="0" width="3.07" height="197.49"/>
          <rect class="cls-1" x="36.82" y="0" width="3.07" height="197.49"/>
          <rect class="cls-1" x="39.89" y="0" width="3.07" height="197.49"/>
          <rect class="cls-1" x="42.96" y="0" width="3.07" height="197.49"/>
          <rect class="cls-1" x="46.03" y="0" width="3.07" height="197.49"/>
          <rect class="cls-1" x="49.1" y="0" width="3.07" height="197.49"/>
          <rect class="cls-1" x="52.17" y="0" width="3.07" height="197.49"/>
          <rect class="cls-1" x="55.24" y="0" width="3.07" height="197.49"/>
          <rect class="cls-1" x="58.3" y="0" width="3.07" height="197.49"/>
          <rect class="cls-1" x="61.37" y="0" width="3.07" height="197.49"/>
          <rect class="cls-1" x="64.44" y="0" width="3.07" height="197.49"/>
          <rect class="cls-1" x="67.51" y="0" width="3.07" height="197.49"/>
          <rect class="cls-1" x="70.58" y="0" width="3.07" height="197.49"/>
          <rect class="cls-1" x="73.65" y="0" width="3.07" height="197.49"/>
          <rect class="cls-1" x="76.72" y="0" width="3.07" height="197.49"/>
          <rect class="cls-1" x="79.79" y="0" width="3.07" height="197.49"/>
          <rect class="cls-1" x="82.85" y="0" width="3.07" height="197.49"/>
          <rect class="cls-1" x="85.92" y="0" width="3.07" height="197.49"/>
          <rect class="cls-1" x="88.99" y="0" width="3.07" height="197.49"/>
          <rect class="cls-1" x="92.06" y="0" width="3.07" height="197.49"/>
          <rect class="cls-1" x="95.13" y="0" width="3.07" height="197.49"/>
          <rect class="cls-1" x="98.2" y="0" width="3.07" height="197.49"/>
          <rect class="cls-1" x="101.27" y="0" width="3.07" height="197.49"/>
          <rect class="cls-1" x="104.33" y="0" width="3.07" height="197.49"/>
          <rect class="cls-1" x="107.4" y="0" width="3.07" height="197.49"/>
          <rect class="cls-1" x="110.47" y="0" width="3.07" height="197.49"/>
          <rect class="cls-1" x="113.54" y="0" width="3.07" height="197.49"/>
          <rect class="cls-1" x="116.61" y="0" width="3.07" height="197.49"/>
          <rect class="cls-1" x="119.68" y="0" width="3.07" height="197.49"/>
          <rect class="cls-1" x="122.75" y="0" width="3.07" height="197.49"/>
          <rect class="cls-1" x="125.82" y="0" width="3.07" height="197.49"/>
          <rect class="cls-1" x="128.88" y="0" width="3.07" height="197.49"/>
          <rect class="cls-1" x="131.95" y="0" width="3.07" height="197.49"/>
          <rect class="cls-1" x="135.02" y="0" width="3.07" height="197.49"/>
          <rect class="cls-1" x="138.09" y="0" width="3.07" height="197.49"/>
          <rect class="cls-1" x="141.16" y="0" width="3.07" height="197.49"/>
          <rect class="cls-1" x="144.23" y="0" width="3.07" height="197.49"/>
          <rect class="cls-1" x="147.3" y="0" width="3.07" height="197.49"/>
          <rect class="cls-1" x="150.36" y="0" width="3.07" height="197.49"/>
          <rect class="cls-1" x="153.43" y="0" width="3.07" height="197.49"/>
          <rect class="cls-1" x="156.5" y="0" width="3.07" height="197.49"/>
          <rect class="cls-1" x="159.57" y="0" width="3.07" height="197.49"/>
          <rect class="cls-1" x="162.64" y="0" width="3.07" height="197.49"/>
          <rect class="cls-1" x="165.71" y="0" width="3.07" height="197.49"/>
          <rect class="cls-1" x="168.78" y="0" width="3.07" height="197.49"/>
          <rect class="cls-1" x="171.84" y="0" width="3.07" height="197.49"/>
          <rect class="cls-1" x="174.91" y="0" width="3.07" height="197.49"/>
          <rect class="cls-1" x="177.98" y="0" width="3.07" height="197.49"/>
          <rect class="cls-1" x="181.05" y="0" width="3.07" height="197.49"/>
          <rect class="cls-1" x="184.12" y="0" width="3.07" height="197.49"/>
          <rect class="cls-1" x="187.19" y="0" width="3.07" height="197.49"/>
          <rect class="cls-1" x="190.26" y="0" width="3.07" height="197.49"/>
          <rect class="cls-1" x="193.33" y="0" width="3.07" height="197.49"/>
          <rect class="cls-1" x="196.39" y="0" width="3.07" height="197.49"/>
          <rect class="cls-1" x="199.46" y="0" width="3.07" height="197.49"/>
          <rect class="cls-1" x="202.53" y="0" width="3.07" height="197.49"/>
          <rect class="cls-1" x="205.6" y="0" width="3.07" height="197.49"/>
          <rect class="cls-1" x="208.67" y="0" width="3.07" height="197.49"/>
          <rect class="cls-1" x="211.74" y="0" width="3.07" height="197.49"/>
          <rect class="cls-1" x="214.81" y="0" width="3.07" height="197.49"/>
          <rect class="cls-1" x="217.87" y="0" width="3.07" height="197.49"/>
          <rect class="cls-1" x="220.94" y="0" width="3.07" height="197.49"/>
          <rect class="cls-1" x="224.01" y="0" width="3.07" height="197.49"/>
          <rect class="cls-1" x="227.08" y="0" width="3.07" height="197.49"/>
          <rect class="cls-1" x="230.15" y="0" width="3.07" height="197.49"/>
          <rect class="cls-1" x="233.22" y="0" width="3.07" height="197.49"/>
          <rect class="cls-1" x="236.29" y="0" width="3.07" height="197.49"/>
          <rect class="cls-1" x="239.36" y="0" width="3.07" height="197.49"/>
          <rect class="cls-1" x="242.42" y="0" width="3.07" height="197.49"/>
          <rect class="cls-1" x="245.49" y="0" width="3.07" height="197.49"/>
          <rect class="cls-1" x="248.56" y="0" width="3.07" height="197.49"/>
        </g>
      </g>
      <g>
        <path class="cls-1" d="M297.15,76.25c0-.87-.21-1.57-.64-2.1-.43-.54-1-.97-1.73-1.31-.73-.34-1.55-.62-2.46-.83-.91-.21-1.87-.42-2.87-.62-1.33-.29-2.59-.63-3.8-1.03-1.21-.4-2.27-.95-3.19-1.66s-1.65-1.6-2.19-2.69c-.54-1.09-.82-2.45-.82-4.08,0-1.8.31-3.37.94-4.7.63-1.33,1.48-2.44,2.56-3.32,1.08-.88,2.35-1.53,3.8-1.96,1.45-.43,3.09-.65,4.91-.65s3.65.18,5.48.54c1.84.36,3.42.82,4.74,1.38v5.35c-1.77-.7-3.46-1.2-5.09-1.52-1.62-.31-3.15-.47-4.58-.47-2.06,0-3.64.37-4.75,1.12-1.11.75-1.67,1.87-1.67,3.37,0,.87.18,1.58.55,2.14.37.56.86,1.02,1.49,1.39.63.37,1.35.66,2.17.88s1.68.42,2.6.61c1.44.31,2.83.66,4.14,1.06,1.32.4,2.49.96,3.51,1.67s1.83,1.64,2.42,2.79c.59,1.15.89,2.61.89,4.4s-.34,3.42-1.02,4.77-1.64,2.45-2.89,3.33c-1.25.88-2.77,1.53-4.55,1.95s-3.74.64-5.86.64c-1.85,0-3.68-.18-5.47-.55-1.79-.37-3.29-.88-4.47-1.54v-5.28c1.68.73,3.32,1.26,4.92,1.59,1.6.33,3.25.5,4.95.5.99,0,1.95-.08,2.91-.24.95-.16,1.81-.44,2.56-.83.76-.39,1.36-.92,1.82-1.59.46-.67.69-1.5.69-2.49Z"/>
        <path class="cls-1" d="M324.28,83.42h-.1c-.34.36-.75.72-1.22,1.1-.48.37-1.02.73-1.63,1.06-.61.33-1.29.6-2.04.8-.75.2-1.56.31-2.42.31-1.17,0-2.27-.18-3.29-.55s-1.9-.89-2.63-1.58c-.73-.69-1.31-1.52-1.72-2.5-.42-.98-.62-2.07-.62-3.28,0-1.33.24-2.52.73-3.57.48-1.05,1.16-1.95,2.03-2.68.87-.73,1.9-1.29,3.11-1.67,1.21-.38,2.54-.57,4-.57,1.07,0,2.06.07,2.96.2.9.14,1.69.3,2.37.48v-.99c0-.58-.1-1.13-.29-1.67s-.51-1.01-.94-1.43c-.43-.42-1-.75-1.7-.99-.7-.25-1.55-.37-2.55-.37-1.22,0-2.45.14-3.67.41-1.22.27-2.55.68-3.98,1.22v-4.72c1.24-.54,2.56-.96,3.95-1.25,1.39-.29,2.86-.44,4.39-.46,1.8,0,3.38.22,4.73.66,1.35.44,2.48,1.05,3.39,1.82.91.77,1.59,1.69,2.04,2.74s.68,2.2.68,3.44v9.31c0,1.63.02,3.03.05,4.21s.07,2.22.1,3.14h-5.46l-.25-2.63ZM323.8,75.51c-.58-.14-1.24-.26-1.99-.37-.75-.11-1.5-.17-2.27-.17-1.48,0-2.65.29-3.51.88-.86.59-1.29,1.48-1.29,2.69,0,.56.1,1.05.29,1.47.19.42.46.76.79,1.03.33.27.72.48,1.16.61.44.14.91.2,1.4.2.61,0,1.19-.08,1.73-.24.54-.16,1.04-.37,1.5-.61.46-.25.87-.52,1.24-.83.37-.31.68-.6.93-.89v-3.77Z"/>
        <path class="cls-1" d="M342.18,64.78h.1c.36-.51.81-1.01,1.35-1.5.54-.49,1.16-.93,1.86-1.3.7-.37,1.47-.68,2.31-.91.84-.23,1.74-.34,2.69-.34.9,0,1.77.1,2.61.31.84.2,1.61.52,2.31.96s1.31.99,1.85,1.68.96,1.51,1.26,2.46c.17.53.29,1.1.34,1.72.06.62.09,1.34.09,2.15v16.04h-6.04v-15.09c0-.66-.03-1.23-.08-1.71s-.14-.89-.28-1.25c-.31-.78-.77-1.34-1.39-1.68-.62-.34-1.37-.51-2.26-.51-1.17,0-2.3.28-3.38.83-1.08.55-2.04,1.36-2.87,2.41v17.01h-6.04v-24.71h5l.56,3.44Z"/>
        <path class="cls-1" d="M380.68,86.02c-.68.2-1.49.37-2.43.48-.94.12-1.82.18-2.64.18-2.07,0-3.77-.33-5.09-1.01-1.32-.67-2.25-1.64-2.79-2.89-.39-.9-.59-2.12-.59-3.67v-12.8h-4.62v-4.97h4.62v-6.91h6.04v6.91h7.14v4.97h-7.14v12.01c0,.95.14,1.66.43,2.12.51.78,1.52,1.17,3.03,1.17.7,0,1.39-.06,2.08-.17s1.34-.25,1.95-.42v5Z"/>
        <path class="cls-1" d="M399.93,83.42h-.1c-.34.36-.75.72-1.22,1.1-.48.37-1.02.73-1.63,1.06-.61.33-1.29.6-2.04.8s-1.55.31-2.42.31c-1.17,0-2.27-.18-3.29-.55-1.02-.37-1.9-.89-2.63-1.58-.73-.69-1.31-1.52-1.72-2.5-.42-.98-.62-2.07-.62-3.28,0-1.33.24-2.52.73-3.57.48-1.05,1.16-1.95,2.03-2.68.87-.73,1.9-1.29,3.11-1.67,1.21-.38,2.54-.57,4-.57,1.07,0,2.06.07,2.96.2.9.14,1.69.3,2.37.48v-.99c0-.58-.1-1.13-.29-1.67s-.51-1.01-.94-1.43c-.43-.42-1-.75-1.7-.99-.7-.25-1.55-.37-2.55-.37-1.22,0-2.45.14-3.67.41-1.22.27-2.55.68-3.98,1.22v-4.72c1.24-.54,2.56-.96,3.95-1.25s2.86-.44,4.39-.46c1.8,0,3.38.22,4.73.66,1.35.44,2.48,1.05,3.39,1.82.91.77,1.59,1.69,2.04,2.74s.68,2.2.68,3.44v9.31c0,1.63.02,3.03.05,4.21s.07,2.22.1,3.14h-5.46l-.25-2.63ZM399.45,75.51c-.58-.14-1.24-.26-1.99-.37-.75-.11-1.5-.17-2.27-.17-1.48,0-2.65.29-3.51.88-.86.59-1.29,1.48-1.29,2.69,0,.56.1,1.05.29,1.47.2.42.46.76.79,1.03.33.27.72.48,1.16.61.44.14.91.2,1.4.2.61,0,1.19-.08,1.73-.24.54-.16,1.04-.37,1.5-.61.46-.25.87-.52,1.24-.83.37-.31.68-.6.93-.89v-3.77Z"/>
        <path class="cls-1" d="M439.3,76.25c0-.87-.21-1.57-.64-2.1s-1-.97-1.73-1.31c-.73-.34-1.55-.62-2.46-.83s-1.87-.42-2.87-.62c-1.33-.29-2.59-.63-3.8-1.03-1.21-.4-2.27-.95-3.19-1.66s-1.65-1.6-2.19-2.69c-.54-1.09-.82-2.45-.82-4.08,0-1.8.31-3.37.94-4.7.63-1.33,1.48-2.44,2.56-3.32,1.08-.88,2.35-1.53,3.8-1.96,1.45-.43,3.09-.65,4.91-.65s3.65.18,5.48.54c1.84.36,3.42.82,4.74,1.38v5.35c-1.77-.7-3.46-1.2-5.09-1.52s-3.15-.47-4.58-.47c-2.06,0-3.64.37-4.75,1.12-1.11.75-1.67,1.87-1.67,3.37,0,.87.18,1.58.55,2.14.37.56.86,1.02,1.49,1.39.63.37,1.35.66,2.17.88.82.22,1.68.42,2.6.61,1.45.31,2.83.66,4.14,1.06s2.49.96,3.51,1.67c1.02.71,1.83,1.64,2.42,2.79.59,1.15.89,2.61.89,4.4s-.34,3.42-1.02,4.77-1.64,2.45-2.89,3.33c-1.25.88-2.77,1.53-4.55,1.95-1.78.42-3.74.64-5.86.64-1.85,0-3.68-.18-5.47-.55-1.79-.37-3.29-.88-4.47-1.54v-5.28c1.68.73,3.32,1.26,4.92,1.59,1.6.33,3.25.5,4.95.5.99,0,1.95-.08,2.91-.24.95-.16,1.81-.44,2.56-.83.76-.39,1.36-.92,1.82-1.59.46-.67.69-1.5.69-2.49Z"/>
        <path class="cls-1" d="M475.46,73.7c0,1.94-.29,3.71-.87,5.3s-1.41,2.97-2.49,4.1c-1.08,1.14-2.38,2.02-3.91,2.64-1.53.62-3.24.93-5.12.93s-3.68-.31-5.21-.93c-1.54-.62-2.84-1.5-3.91-2.64-1.07-1.14-1.89-2.51-2.46-4.1-.57-1.6-.85-3.37-.85-5.3s.29-3.71.87-5.3c.58-1.6,1.41-2.97,2.49-4.1s2.38-2.02,3.91-2.64c1.53-.62,3.24-.93,5.12-.93s3.68.31,5.21.93c1.54.62,2.84,1.5,3.91,2.64,1.07,1.14,1.89,2.51,2.46,4.1.57,1.6.85,3.37.85,5.3ZM469.21,73.7c0-1.31-.15-2.46-.46-3.47-.31-1-.73-1.84-1.27-2.52-.54-.68-1.2-1.19-1.96-1.53-.77-.34-1.6-.51-2.5-.51s-1.7.17-2.46.51c-.76.34-1.41.85-1.95,1.53-.54.68-.97,1.52-1.27,2.52-.31,1-.46,2.16-.46,3.47s.15,2.46.46,3.47c.31,1,.73,1.84,1.29,2.51.55.67,1.21,1.18,1.96,1.53.76.35,1.58.52,2.49.52s1.73-.17,2.47-.52c.75-.35,1.39-.86,1.94-1.53.54-.67.97-1.51,1.27-2.51.31-1,.46-2.16.46-3.47Z"/>
        <path class="cls-1" d="M496.29,54.02c-.66-.17-1.35-.31-2.05-.42-.71-.11-1.37-.17-2-.17-.68,0-1.28.08-1.81.24-.53.16-.97.43-1.34.8s-.64.86-.83,1.45c-.19.6-.28,1.32-.28,2.17v3.24h6.86v4.97h-6.86v19.74h-6.04v-19.74h-4.18v-4.97h4.18v-2.93c0-1.73.24-3.23.73-4.47.48-1.25,1.16-2.28,2.03-3.09.87-.81,1.89-1.4,3.06-1.78,1.17-.38,2.45-.57,3.82-.57.85,0,1.7.07,2.54.22.84.14,1.57.32,2.18.52v4.79Z"/>
        <path class="cls-1" d="M498.1,61.34h6.04v24.71h-6.04v-24.71ZM507.48,48.49l-4.21,8.9h-4.69l3.03-8.9h5.86Z"/>
        <path class="cls-1" d="M525.46,83.42h-.1c-.34.36-.75.72-1.22,1.1-.48.37-1.02.73-1.63,1.06-.61.33-1.29.6-2.04.8-.75.2-1.56.31-2.42.31-1.17,0-2.27-.18-3.29-.55-1.02-.37-1.9-.89-2.63-1.58-.73-.69-1.3-1.52-1.72-2.5-.42-.98-.62-2.07-.62-3.28,0-1.33.24-2.52.73-3.57.48-1.05,1.16-1.95,2.03-2.68.87-.73,1.9-1.29,3.11-1.67s2.54-.57,4-.57c1.07,0,2.06.07,2.96.2.9.14,1.69.3,2.37.48v-.99c0-.58-.1-1.13-.29-1.67-.2-.54-.51-1.01-.94-1.43-.43-.42-1-.75-1.7-.99s-1.55-.37-2.55-.37c-1.22,0-2.45.14-3.67.41s-2.55.68-3.98,1.22v-4.72c1.24-.54,2.56-.96,3.95-1.25,1.39-.29,2.86-.44,4.38-.46,1.8,0,3.38.22,4.73.66,1.35.44,2.48,1.05,3.39,1.82s1.59,1.69,2.04,2.74c.45,1.05.68,2.2.68,3.44v9.31c0,1.63.02,3.03.05,4.21s.07,2.22.1,3.14h-5.46l-.25-2.63ZM524.97,75.51c-.58-.14-1.24-.26-1.99-.37-.75-.11-1.5-.17-2.27-.17-1.48,0-2.65.29-3.51.88-.86.59-1.29,1.48-1.29,2.69,0,.56.1,1.05.29,1.47.19.42.46.76.79,1.03.33.27.72.48,1.16.61.44.14.91.2,1.4.2.61,0,1.19-.08,1.73-.24s1.05-.37,1.5-.61c.46-.25.87-.52,1.24-.83.37-.31.68-.6.93-.89v-3.77Z"/>
      </g>
      <g>
        <path class="cls-1" d="M280.93,104.61c-1.37,0-2.66.22-3.85.65-1.19.43-2.23,1.08-3.11,1.95-.88.86-1.57,1.93-2.08,3.21-.51,1.28-.76,2.77-.76,4.47s.24,3.15.71,4.39c.47,1.24,1.14,2.27,2.01,3.08.87.81,1.91,1.42,3.13,1.81,1.22.39,2.58.59,4.08.59.41,0,.84-.02,1.3-.06.46-.04.92-.1,1.38-.18.46-.08.92-.17,1.36-.28.44-.1.83-.22,1.18-.34v2.64c-.72.28-1.56.5-2.51.65-.95.15-1.93.23-2.94.23-2.04,0-3.85-.28-5.43-.85-1.58-.57-2.9-1.38-3.97-2.45-1.07-1.06-1.88-2.36-2.43-3.9s-.83-3.28-.83-5.22.29-3.66.87-5.27c.58-1.6,1.42-2.98,2.51-4.13,1.09-1.15,2.42-2.04,3.98-2.69s3.31-.96,5.26-.96c.51,0,1.02.02,1.52.06.5.04.98.1,1.44.18.46.08.88.17,1.27.28.39.11.73.23,1.01.35v2.64c-.74-.24-1.55-.45-2.43-.61-.88-.17-1.76-.25-2.66-.25Z"/>
        <path class="cls-1" d="M291.02,126.96v-26.56h2.84v26.56h-2.84Z"/>
        <path class="cls-1" d="M299.74,126.96v-17.43h2.84v17.43h-2.84ZM305.39,99.94l-2.95,6.4h-2.38l2.26-6.4h3.08Z"/>
        <path class="cls-1" d="M311.02,111.95h.05c.32-.4.67-.78,1.06-1.13.38-.35.82-.65,1.29-.92s1-.47,1.57-.61c.57-.15,1.19-.22,1.86-.22.79,0,1.54.11,2.24.33.7.22,1.3.58,1.82,1.06.51.49.92,1.13,1.22,1.92.3.79.45,1.76.45,2.91v11.67h-2.84v-11.21c0-1.5-.29-2.59-.87-3.25-.58-.66-1.43-.99-2.54-.99-.98,0-1.93.27-2.84.82-.92.54-1.71,1.29-2.37,2.25v12.38h-2.84v-17.43h2.2l.55,2.42Z"/>
        <path class="cls-1" d="M328.19,105.47v-3.17h2.84v3.17h-2.84ZM328.26,126.96v-17.43h2.84v17.43h-2.84Z"/>
        <path class="cls-1" d="M344.28,109.07c.84,0,1.65.09,2.42.27.77.18,1.43.43,1.98.74v2.37c-.77-.29-1.48-.51-2.13-.66s-1.31-.22-1.98-.22c-.71,0-1.41.12-2.11.35s-1.32.61-1.87,1.15c-.55.53-.99,1.24-1.33,2.11-.34.88-.5,1.96-.5,3.26,0,.94.12,1.81.38,2.61.25.79.62,1.48,1.12,2.06s1.12,1.03,1.86,1.36c.75.32,1.61.49,2.59.49.71,0,1.42-.08,2.15-.23.72-.15,1.42-.37,2.11-.65v2.37c-.21.12-.48.25-.82.37-.34.12-.71.23-1.11.32-.4.09-.83.17-1.28.22-.45.05-.91.08-1.36.08-1.17,0-2.28-.18-3.33-.53-1.04-.35-1.96-.9-2.74-1.63-.78-.73-1.4-1.66-1.85-2.79-.45-1.12-.68-2.46-.68-4,0-1.15.12-2.18.36-3.1.24-.92.57-1.72.98-2.42s.9-1.29,1.46-1.78c.56-.49,1.15-.89,1.78-1.2.63-.31,1.28-.54,1.95-.68s1.33-.21,1.96-.21Z"/>
        <path class="cls-1" d="M363.46,125.03h-.07c-.23.29-.53.58-.88.87-.36.29-.76.54-1.23.77s-.97.41-1.52.54c-.55.13-1.14.2-1.76.2-.84,0-1.62-.12-2.32-.38-.7-.25-1.31-.62-1.82-1.1-.51-.48-.9-1.07-1.18-1.77s-.42-1.49-.42-2.37.16-1.64.47-2.33c.31-.68.75-1.27,1.31-1.74.56-.48,1.24-.84,2.03-1.1.79-.26,1.66-.39,2.61-.39.9.01,1.74.09,2.51.24.77.15,1.46.33,2.05.55h.07v-1.21c0-.48-.03-.9-.09-1.27-.06-.37-.17-.69-.31-.97-.32-.59-.83-1.07-1.52-1.46s-1.64-.58-2.83-.58c-.88,0-1.71.08-2.49.25-.78.17-1.55.39-2.32.69v-2.38c.29-.15.64-.28,1.04-.41.4-.13.82-.24,1.26-.33.44-.09.9-.16,1.39-.21s.98-.07,1.47-.07c1.76,0,3.2.31,4.32.94,1.12.62,1.92,1.45,2.41,2.48.18.39.31.82.39,1.29.08.47.12.99.12,1.55v11.63h-2.38l-.31-1.93ZM363.32,119.31c-.52-.15-1.14-.29-1.86-.42-.72-.13-1.51-.21-2.37-.22-1.21,0-2.15.26-2.83.77-.68.51-1.02,1.3-1.02,2.37,0,.54.08,1.01.26,1.41.17.4.41.74.7,1,.3.26.65.46,1.06.59.41.13.84.19,1.31.19.61,0,1.17-.09,1.7-.27.52-.18.99-.39,1.4-.63.41-.24.75-.49,1.04-.73.29-.25.5-.43.63-.57v-3.49Z"/>
        <path class="cls-1" d="M385.26,123.14c.89-2.68,1.84-5.38,2.86-8.11l4.71-12.62h2.99l-9.31,24.54h-2.61l-9.31-24.54h2.99l4.71,12.62c1.03,2.73,2,5.43,2.88,8.11h.07Z"/>
        <path class="cls-1" d="M406.22,124.94c.94,0,1.8-.08,2.58-.23.78-.15,1.55-.37,2.32-.65v2.37c-.62.31-1.39.55-2.31.72s-1.9.27-2.95.27c-1.25,0-2.42-.16-3.51-.48-1.09-.32-2.04-.83-2.84-1.54-.8-.71-1.43-1.63-1.88-2.78-.45-1.14-.68-2.52-.68-4.14s.22-2.97.66-4.14c.44-1.17,1.03-2.14,1.76-2.93.73-.78,1.57-1.37,2.53-1.76.95-.39,1.95-.59,2.98-.59.98,0,1.89.16,2.74.49.85.32,1.58.83,2.21,1.53.62.7,1.11,1.6,1.47,2.7s.54,2.42.54,3.96v.38c0,.1,0,.34-.02.71h-12.03c0,1.11.17,2.06.5,2.83.34.78.79,1.41,1.38,1.89.58.48,1.26.83,2.04,1.05.78.22,1.63.33,2.53.33ZM404.72,111.51c-.66,0-1.27.13-1.83.39s-1.06.61-1.48,1.05c-.42.44-.76.96-1.02,1.55-.26.59-.42,1.23-.48,1.9h8.92c0-.68-.09-1.32-.27-1.92-.18-.59-.44-1.11-.79-1.55s-.77-.79-1.28-1.04c-.51-.25-1.1-.38-1.76-.38Z"/>
        <path class="cls-1" d="M425.83,126.99c-.24.1-.62.19-1.12.28-.5.09-1.1.13-1.8.15-.92,0-1.71-.11-2.38-.34-.67-.23-1.23-.55-1.68-.97s-.78-.93-1-1.53c-.22-.6-.33-1.27-.33-2v-10.6h-3.36v-2.44h3.36v-4.77h2.84v4.77h5.21v2.44h-5.21v10.16c0,.4.06.78.17,1.12.12.34.3.64.55.89s.57.45.96.59c.39.14.86.21,1.41.21.38,0,.78-.03,1.2-.09s.81-.14,1.16-.24v2.38Z"/>
        <path class="cls-1" d="M437.96,124.94c.94,0,1.8-.08,2.58-.23.78-.15,1.55-.37,2.32-.65v2.37c-.62.31-1.39.55-2.31.72s-1.9.27-2.95.27c-1.25,0-2.42-.16-3.51-.48-1.09-.32-2.04-.83-2.84-1.54-.8-.71-1.43-1.63-1.88-2.78-.45-1.14-.68-2.52-.68-4.14s.22-2.97.66-4.14c.44-1.17,1.03-2.14,1.76-2.93.73-.78,1.57-1.37,2.53-1.76.95-.39,1.95-.59,2.98-.59.98,0,1.89.16,2.74.49.85.32,1.58.83,2.21,1.53.62.7,1.11,1.6,1.47,2.7s.54,2.42.54,3.96v.38c0,.1,0,.34-.02.71h-12.03c0,1.11.17,2.06.5,2.83.34.78.79,1.41,1.38,1.89.58.48,1.26.83,2.04,1.05.78.22,1.63.33,2.53.33ZM436.46,111.51c-.66,0-1.27.13-1.83.39s-1.06.61-1.48,1.05c-.42.44-.76.96-1.02,1.55-.26.59-.42,1.23-.48,1.9h8.92c0-.68-.09-1.32-.27-1.92-.18-.59-.44-1.11-.79-1.55s-.77-.79-1.28-1.04c-.51-.25-1.1-.38-1.76-.38Z"/>
        <path class="cls-1" d="M457.94,111.84h-.22c-.67,0-1.33.06-1.98.18-.65.12-1.26.31-1.83.56-.57.25-1.08.56-1.54.93-.46.37-.84.8-1.15,1.3v12.14h-2.84v-17.43h2.2l.55,2.77h.05c.28-.45.63-.87,1.04-1.27.41-.39.87-.73,1.38-1.03.51-.29,1.08-.52,1.69-.69.61-.17,1.25-.25,1.93-.25.12,0,.25,0,.38,0,.13,0,.24.02.34.03v2.73Z"/>
        <path class="cls-1" d="M461.07,105.47v-3.17h2.84v3.17h-2.84ZM461.15,126.96v-17.43h2.84v17.43h-2.84Z"/>
        <path class="cls-1" d="M472.43,111.95h.05c.32-.4.67-.78,1.05-1.13.38-.35.82-.65,1.29-.92.48-.26,1-.47,1.57-.61.57-.15,1.19-.22,1.86-.22.79,0,1.54.11,2.24.33.7.22,1.3.58,1.82,1.06s.92,1.13,1.22,1.92c.3.79.45,1.76.45,2.91v11.67h-2.84v-11.21c0-1.5-.29-2.59-.87-3.25-.58-.66-1.43-.99-2.54-.99-.98,0-1.93.27-2.84.82-.92.54-1.71,1.29-2.37,2.25v12.38h-2.84v-17.43h2.2l.55,2.42Z"/>
        <path class="cls-1" d="M499.69,125.03h-.07c-.23.29-.53.58-.88.87-.35.29-.76.54-1.23.77-.46.23-.97.41-1.52.54-.55.13-1.14.2-1.76.2-.84,0-1.62-.12-2.32-.38-.7-.25-1.31-.62-1.82-1.1-.51-.48-.9-1.07-1.18-1.77s-.42-1.49-.42-2.37.16-1.64.47-2.33c.31-.68.75-1.27,1.31-1.74.56-.48,1.24-.84,2.03-1.1.79-.26,1.66-.39,2.61-.39.91.01,1.74.09,2.51.24.77.15,1.46.33,2.05.55h.07v-1.21c0-.48-.03-.9-.09-1.27-.06-.37-.17-.69-.31-.97-.32-.59-.83-1.07-1.52-1.46-.7-.38-1.64-.58-2.82-.58-.88,0-1.71.08-2.49.25-.78.17-1.55.39-2.32.69v-2.38c.29-.15.64-.28,1.04-.41.4-.13.82-.24,1.26-.33s.91-.16,1.39-.21c.49-.05.98-.07,1.47-.07,1.76,0,3.2.31,4.32.94,1.12.62,1.92,1.45,2.41,2.48.18.39.32.82.39,1.29s.12.99.12,1.55v11.63h-2.38l-.31-1.93ZM499.54,119.31c-.52-.15-1.14-.29-1.86-.42-.72-.13-1.51-.21-2.37-.22-1.21,0-2.15.26-2.83.77s-1.02,1.3-1.02,2.37c0,.54.08,1.01.26,1.41.17.4.4.74.7,1,.3.26.65.46,1.06.59.41.13.84.19,1.31.19.61,0,1.17-.09,1.7-.27.52-.18.99-.39,1.4-.63.41-.24.75-.49,1.04-.73.29-.25.5-.43.63-.57v-3.49Z"/>
        <path class="cls-1" d="M517.44,111.84h-.22c-.67,0-1.33.06-1.98.18-.65.12-1.26.31-1.83.56-.57.25-1.08.56-1.54.93s-.84.8-1.15,1.3v12.14h-2.84v-17.43h2.2l.55,2.77h.05c.28-.45.63-.87,1.04-1.27.41-.39.87-.73,1.38-1.03.51-.29,1.08-.52,1.69-.69s1.25-.25,1.93-.25c.12,0,.25,0,.38,0,.13,0,.24.02.34.03v2.73Z"/>
        <path class="cls-1" d="M520.58,105.47v-3.17h2.84v3.17h-2.84ZM520.65,126.96v-17.43h2.84v17.43h-2.84Z"/>
        <path class="cls-1" d="M539.38,125.03h-.07c-.23.29-.53.58-.88.87-.35.29-.76.54-1.23.77-.46.23-.97.41-1.52.54-.55.13-1.14.2-1.76.2-.84,0-1.62-.12-2.32-.38-.7-.25-1.31-.62-1.82-1.1-.51-.48-.9-1.07-1.18-1.77s-.42-1.49-.42-2.37.16-1.64.47-2.33c.31-.68.75-1.27,1.31-1.74.56-.48,1.24-.84,2.03-1.1.79-.26,1.66-.39,2.61-.39.91.01,1.74.09,2.51.24.77.15,1.46.33,2.05.55h.07v-1.21c0-.48-.03-.9-.09-1.27-.06-.37-.17-.69-.31-.97-.32-.59-.83-1.07-1.52-1.46-.7-.38-1.64-.58-2.82-.58-.88,0-1.71.08-2.49.25-.78.17-1.55.39-2.32.69v-2.38c.29-.15.64-.28,1.04-.41.4-.13.82-.24,1.26-.33s.91-.16,1.39-.21c.49-.05.98-.07,1.47-.07,1.76,0,3.2.31,4.32.94,1.12.62,1.92,1.45,2.41,2.48.18.39.32.82.39,1.29s.12.99.12,1.55v11.63h-2.38l-.31-1.93ZM539.24,119.31c-.52-.15-1.14-.29-1.86-.42-.72-.13-1.51-.21-2.37-.22-1.21,0-2.15.26-2.83.77s-1.02,1.3-1.02,2.37c0,.54.08,1.01.26,1.41.17.4.4.74.7,1,.3.26.65.46,1.06.59.41.13.84.19,1.31.19.61,0,1.17-.09,1.7-.27.52-.18.99-.39,1.4-.63.41-.24.75-.49,1.04-.73.29-.25.5-.43.63-.57v-3.49Z"/>
      </g>
    </g>
  </g>
</svg>