<?xml version="1.0" encoding="UTF-8"?>
<svg id="Capa_2" data-name="Capa 2" xmlns="http://www.w3.org/2000/svg" xmlns:xlink="http://www.w3.org/1999/xlink" viewBox="0 0 251.63 197.49">
  <defs>
    <style>
      .cls-1 {
        fill: url(#Degradado_sin_nombre_8);
      }
    </style>
    <linearGradient id="Degradado_sin_nombre_8" data-name="Degradado sin nombre 8" x1="0" y1="98.74" x2="251.63" y2="98.74" gradientUnits="userSpaceOnUse">
      <stop offset="0" stop-color="#1a7933"/>
      <stop offset="1" stop-color="#8abe23"/>
    </linearGradient>
  </defs>
  <g id="Capa_1-2" data-name="Capa 1">
    <path class="cls-1" d="M246.38,85.19l.02.02c-.47,1.12-.98,2.25-1.54,3.4-9.23-7.37-27.03-22.53-27.03-22.53-4.78-29.73-24.95-49.9-24.95-49.9l-2.7,12.69-9.57-7.91-.21,28.7-11.85,6.44c-11.85,6.45-16.22,17.88-16.22,17.88l-18.16,14.98s-3.04-1.67-9.7,3.11c-6.65,4.79,1.34,11.65,1.34,11.65,3.42,21,19.46,27.24,33.8,26.4,14.35-.83,22.04,1.87,22.04,1.87l9.45,16.82c-32.05,27.19-65.29,48.68-65.29,48.68,0,0-36.05-23.3-69.26-52.09.6-2.34,1.46-5.06,2.64-8.21,6.23-16.63,7.48-15.59,20.58-17.46,13.1-1.87,14.55-10.81,17.67-13.93s3.95-7.28,0-9.36c-3.95-2.08-3.12-6.03-5.82-14.55-2.7-8.53-22.04-19.34-22.04-19.34l-2.7-19.96c-12.26,3.29-44.18,48.96-51.64,59.85-4.26-5.91-7.7-11.69-10.01-17.23v-.02c-3.35-7.56-5.23-15.95-5.23-24.79C0,27.04,26.62,0,59.46,0c3.97,0,7.85.4,11.6,1.16h0s31.28,3.85,54.75,27.95C149.28,5.01,180.56,1.15,180.56,1.15h.01c3.75-.75,7.62-1.15,11.59-1.15,32.84,0,59.47,27.04,59.47,60.4,0,8.84-1.89,17.23-5.25,24.79Z"/>
  </g>
</svg>