<?xml version="1.0" encoding="UTF-8"?>
<svg id="Capa_2" data-name="Capa 2" xmlns="http://www.w3.org/2000/svg" viewBox="0 0 2807.41 1629.9">
  <defs>
    <style>
      .cls-1 {
        fill: #2e3552;
      }

      .cls-2 {
        fill: #ed7d2b;
      }

      .cls-3 {
        fill: #1c468a;
      }

      .cls-4 {
        fill: #233862;
      }

      .cls-5 {
        fill: #b7d3f3;
      }

      .cls-6 {
        fill: #dfebfa;
      }

      .cls-7 {
        fill: #fff;
      }

      .cls-8 {
        fill: #c0d8fb;
      }

      .cls-9 {
        fill: #9db0f4;
      }

      .cls-10 {
        fill: #f1a34f;
      }

      .cls-11 {
        fill: #ed985f;
      }

      .cls-12 {
        fill: #b5453c;
      }

      .cls-13 {
        fill: #afcdfb;
        opacity: .5;
      }

      .cls-14 {
        fill: #f9ddbf;
      }

      .cls-15 {
        fill: #dfebfd;
      }

      .cls-16 {
        fill: #ffdabb;
      }

      .cls-17 {
        fill: #ebf3fa;
      }

      .cls-18 {
        fill: #163560;
      }

      .cls-19 {
        fill: #ffb27d;
      }

      .cls-20 {
        fill: #fca56b;
      }

      .cls-21 {
        fill: #bc6211;
      }

      .cls-22 {
        fill: #b0d0ff;
      }

      .cls-23 {
        fill: #f2ccaa;
      }

      .cls-24 {
        fill: #2c3a64;
      }

      .cls-25 {
        fill: #93312c;
      }

      .cls-26 {
        fill: #e07f20;
      }

      .cls-27 {
        fill: #d9e8fa;
      }

      .cls-28 {
        fill: #e58435;
      }

      .cls-29 {
        fill: #aec3ff;
      }
    </style>
  </defs>
  <g id="_Слой_1" data-name="Слой 1">
    <g>
      <path class="cls-17" d="M170.19,1626.32s-327.63-355.96-55.41-741.35c241.53-341.94,412.41-159.94,643.62-497.92,553.71-809.39,1958.97-209.25,1772.86,520.77-90.07,353.27,274.11,366.12,88.55,719.25l-2449.62-.75Z"/>
      <path class="cls-13" d="M2188.39,1068.1c-44.71-51.95-136.52,14.88-136.52,14.88,0,0-18.43,137.17-37.13,149.17-18.71,12-7.14-120.35-7.14-120.35-40.33,14.71-115.97,108.95-115.97,108.95,0,0,64.51,118.89,43.42,125.92-21.08,7.03-51.75-108.18-51.75-108.18-31.95,29.04-45.95,89.21-45.95,89.21-9.62,91.7,108.62,99.31,108.62,99.31,0,0,21.47,41.68,18.55,102.67h0s-1.61,11.77-.32,29.86l10.17-4.86c-.47-3.12-.82-6.2-1.02-9.21,0-.02,0-.04,0-.06,0-.04,0-.09,0-.13-.06-1.91-.12-4.62-.18-7.94h0s0-.02,0-.03c.2-7.57.15-13.07-.08-16.95,0-.01,0-.02,0-.04.18-23.55,1.69-54.84,8.14-64.34,0,0-1.88-1.04-4.41-3.62,1.41,1.16,2.87,2.36,4.41,3.62,35.25,28.98,125.27-6.44,169.01-39.59,43.74-33.14,16.06-36.71-20.68-46.42-36.73-9.71-88.65,22.31-108.97,21.34-20.33-.97-.87-20.98,32.65-33.95,33.52-12.98,65.15,11.62,119.75-8.39,54.61-20.01,47.41-137.28,47.41-137.28-30.71,28.44-104.88,39.47-113.32,28.23-8.43-11.25,87.91-55.8,101.05-66.67,13.14-10.87,24.98-53.2-19.74-105.16Z"/>
      <path class="cls-6" d="M504.67,918.27c11.78-114.58,202.54-110.56,202.54-110.56,0,0,157.12,171.46,194.44,170.05,37.32-1.41-105.71-172.82-105.71-172.82,69.74-18.44,264.53,38.9,264.53,38.9,0,0,25.19,225.89,61.02,215.34,35.83-10.55-32.51-198.87-32.51-198.87,71.94,9.36,149.02,78.9,149.02,78.9,101.31,117.22-54.44,241.25-54.44,241.25,0,0,10.42,78.09,73,159.39h0s13.52,14.69,29.11,40.87l-18.7,3.06c-2.35-4.76-4.82-9.33-7.45-13.68,0-.04-.02-.06-.05-.08-.04-.06-.08-.12-.12-.19-1.75-2.68-4.27-6.49-7.38-11.12,0,0,0-.01-.01-.02,0-.01-.01-.01-.02-.02-7.54-10.25-12.75-17.88-16.16-23.44-.01-.02-.02-.04-.03-.05-22.85-32.3-54.99-74-73-80.91,0,0,1.59-3.25,2.6-9.23-.83,2.94-1.69,6.01-2.6,9.23-20.79,73.81-178.94,111.4-271.08,107.69-92.14-3.71-57.39-35.21-16.06-83.87,41.33-48.66,143.67-54.34,170.77-75.2,27.1-20.86-18.95-29.76-77.63-15.47-58.69,14.29-78.69,78.58-173.2,103.42-94.51,24.84-197.18-143.79-197.18-143.79,69.65,9.74,182.54-46.27,183.38-69.88.83-23.61-174.81,7.46-203.36,5.08-28.55-2.37-85.52-49.39-73.75-163.97Z"/>
      <path class="cls-6" d="M1871.98,305.1c-85.26-67.41-208.03,64.27-208.03,64.27,0,0,12.62,219.08-12.88,243.4-25.5,24.32-47.37-185.2-47.37-185.2-58.36,35.04-147.71,204.53-147.71,204.53,0,0,136.22,165.64,105.52,182.94-30.71,17.29-113.14-152.82-113.14-152.82-40.99,54.82-44.66,152.71-44.66,152.71,12.64,145.64,199.01,121.89,199.01,121.89,0,0,45.97,58.42,59.8,154.24h0s1.04,18.82,8.49,46.58l14.37-10.64c-1.68-4.72-3.14-9.4-4.36-14.04-.02-.03-.02-.05-.02-.09-.02-.07-.03-.13-.05-.2-.66-2.95-1.58-7.15-2.67-12.31,0,0,0-.01,0-.02,0,0,0-.02,0-.03-1.97-11.84-3.71-20.38-5.22-26.36,0-.02,0-.04-.02-.05-6.82-36.71-13.89-85.88-6.71-102.6,0,0-3.25-1.06-7.95-4.31,2.54,1.38,5.18,2.81,7.95,4.31,63.61,34.49,193.07-47.75,251.17-112.52,58.1-64.77,13.94-61.98-46.17-66.04-60.1-4.05-131.28,61.43-163.21,66.04-31.94,4.61-7.67-32.39,40.61-62.69,48.27-30.3,104.92-1.53,183.9-49.12,78.98-47.59,32.46-227.98,32.46-227.98-39.24,53.52-151.39,93.04-167.91,78.07-16.52-14.97,120.04-113.34,137.22-134.22,17.18-20.87,22.86-90.34-62.4-157.75Z"/>
      <path class="cls-27" d="M906.19,1458.58c-2.41-49.56,79.08-60.21,79.08-60.21,0,0,78.02,62.83,93.82,59.81,15.8-3.02-56.21-66.74-56.21-66.74,28.5-12.37,115.17-.58,115.17-.58,0,0,25.37,94.56,39.94,87.74,14.57-6.82-26.73-82.58-26.73-82.58,31.24-.68,68.57,23.94,68.57,23.94,50.74,43.35-7.55,106.26-7.55,106.26,0,0,9.5,32.58,41.42,63.14h0s6.71,5.38,15.04,15.52l-7.76,2.51c-1.31-1.88-2.66-3.66-4.06-5.34,0-.01-.01-.02-.03-.03-.02-.02-.04-.05-.06-.07-.92-1.03-2.24-2.49-3.86-4.26,0,0,0,0,0,0,0,0,0,0,0,0-3.87-3.88-6.59-6.79-8.4-8.93,0,0-.01-.01-.02-.02-11.83-12.27-28.21-27.95-36.33-29.72,0,0,.47-1.49.51-4.1-.16,1.31-.33,2.67-.51,4.1-4.07,32.78-68.98,59.04-108.45,63.43-39.48,4.39-26.72-11.27-12.27-34.67,14.45-23.4,57.66-32.45,67.85-43.09,10.19-10.64-10-11.45-34.06-1.56-24.06,9.89-28.41,38.56-67.05,55.26-38.64,16.7-93.29-48.45-93.29-48.45,30.29-.37,74.73-31.54,73.56-41.64-1.17-10.11-73.95,14.5-86.27,15.34-12.31.84-39.62-15.49-42.03-65.04Z"/>
      <g>
        <path class="cls-2" d="M1013.28,616.93c-32.16,16.53-85.35,31.47-104.15,73.85-6.66,15.03-3.08,67.67,19.48,64.6,12.41-1.69,15.98-18.34,16.68-32.99.7-14.53,9.58-27.41,22.79-33.52l146.8-64.39-27.63-56.81s-59.85,42.01-73.97,49.26Z"/>
        <path class="cls-10" d="M2468.56,1623.17h-888.88c0,10.62-159.95,0-159.95,0,0,0,11.27-54.71,37.93-70.09,6.04-3.48,50.45,7.13,61.33,6.66-4.6-2.88-98.69-32.05-77.6-175.96l-50.22,232c-.7,4.26-4.38,7.39-8.69,7.39h-196.79c-4.25,0-7.88-3.01-8.67-7.19-2.95-15.64-7.82-52.82,7.69-71.72,12.23-14.9,50.73-11.54,78.71-6.69,6.29,1.08,12.03,2.24,16.84,3.29,6.47,1.41,12.13-4.53,10.4-10.93,0,0-14.63-42.97-41.26-102.68-26.64-59.73-65.28-136.21-113.35-203.25-9.63-13.42-19.62-26.47-29.97-38.93-37.18-44.72-62.37-152.22-29.83-199.67,4.26-6.21,23.44-26.72,16.55-23.68-14.18,6.26-24.42,16.6-31.43,26.23-4.91,6.74-15.61,3.42-15.89-4.93-3.92-112.08,80.75-207.88,113.96-256.75,10.82-15.93,16.18-26.87,11.23-31.77-21.36-21.23-115.7,32.59-158.31,31.07-25.24-.89-44.4-9.78-55.81-16.87-2.58-1.61-3.95-4.18-4.14-6.82-.24-3.31,1.35-6.74,4.73-8.49,24.49-12.71,61.49-28.33,90.73-49.42,14.7-10.59,27.89-29.23,35.55-45.45,5.81-12.31,3.81-27.35,3.81-27.35-33.03,28.21-76.62,51.48-113.89,64.18-24.82,8.46-46.84,12.25-61.06,9.7-36.67-6.55-59.76-40.23-72.76-67.62-5.67-11.94-9.41-22.69-11.53-29.48-1.33-4.26.75-8.82,4.81-10.64,5.96-2.68,15.4-6.95,26.97-12.27,53.69-24.7,113.25-44.26,123.9-61.32,3.66-5.85,7.01-12.34,10.35-19.29,0,0,.01-.03.04-.08,15.93-33.24,31.4-77.04,76.03-112.41,69.31-54.92,139.97-65.41,169.46-67.3,9.05-.59,14.22-.37,14.28-.37,45.96-1.83,80.07,4.97,105.49,18.19h.03c98.5,51.2,66.46,198.47,87.1,310.95.8,4.38,1.68,8.7,2.66,12.97,8.49,37.18,117.04,138,121.35,199.26,8.2,116.88,95.65,127.8,289.01,246.07,111.79,68.4,119.79,253.67,109.72,394.54-2.49,34.91,21.98,66.04,56.49,71.79,47.02,7.81,99.33,11.1,147.56,2.12,132.29-24.61,159.97-249.17,79.99-283.01,0,0,135.77-39.99,201.7,64.6,65.94,104.59,65.94,270.65,13.64,321.44Z"/>
        <path class="cls-2" d="M1272.11,296.69c-38.94,0-72.2,29.66-78.41,70.06-9.41,61.23-18.73,149.6-6.93,210.38,17.61,90.67,95.82,123.86,146.01,96.99,92.71-49.63,50.36-241.46,24.59-330.96-7.95-27.62-32.22-46.48-59.68-46.48h-25.58Z"/>
        <path class="cls-26" d="M1060.88,453.94c-2.58,0-5.14-1.07-6.97-3.17-3.34-3.85-2.94-9.67.91-13.02,1.11-.96,27.65-23.5,70.73-13.29,4.96,1.17,8.03,6.15,6.85,11.11-1.17,4.96-6.15,8.02-11.11,6.85-33.96-8.05-54.16,9.09-54.36,9.26-1.75,1.52-3.9,2.26-6.05,2.26Z"/>
        <path class="cls-21" d="M839.53,577.41c-5.67-11.93-9.41-22.68-11.52-29.48-1.33-4.26.75-8.82,4.81-10.64,5.96-2.68,15.4-6.94,26.97-12.26,0,0,7.57,42.92-20.25,52.38Z"/>
        <path class="cls-16" d="M2468.57,1623.17h-156.39c178.53-36.7,141.11-173.59,141.11-173.59-18.45,33.84-121.49,39.99-121.49,39.99,0,0,69.21-64.59,63.06-159.94-5-77.49-95.42-90.12-129.11-92.13-7.76-.46-12.52-.36-12.52-.36,0,0,135.76-40,201.7,64.59,65.94,104.59,65.94,270.65,13.64,321.44Z"/>
        <path class="cls-10" d="M1359.34,282.45s86.99,22.94,105.45,92.14c0,0-11.55-11.22-19.75-14.64,0,0,22.41,19.14,19.75,67.67-2.66,48.53-30.04,125.78-15.67,178.75l-54.67-95.02-35.11-228.91Z"/>
        <path class="cls-10" d="M994.03,444.41s25.09-63.27,0-86.85c0,0,17.46-5.13,26.17,0,0,0,3.08-48.19,64.59-69.72,61.52-21.53,154.78-23.22,154.78-23.22l-160.93,119.6-84.62,60.19Z"/>
      </g>
      <g>
        <rect class="cls-8" x="2110.28" y="407.43" width="170.09" height="165.01" rx="12.17" ry="12.17"/>
        <path class="cls-15" d="M2128.76,414.57h133.13c6.13,0,11.11,4.98,11.11,11.11v128.49c0,6.13-4.98,11.11-11.11,11.11h-133.13c-6.13,0-11.11-4.98-11.11-11.11v-128.49c0-6.13,4.98-11.11,11.11-11.11Z"/>
        <g>
          <g>
            <path class="cls-5" d="M2191.8,429.64c0-1.95,1.58-3.52,3.52-3.52s3.52,1.58,3.52,3.52-1.58,3.52-3.52,3.52-3.52-1.58-3.52-3.52Z"/>
            <path class="cls-5" d="M2220.23,434.61c.95-1.7,3.09-2.31,4.79-1.37,1.7.95,2.31,3.09,1.37,4.79-.94,1.7-3.09,2.31-4.79,1.37-1.7-.95-2.31-3.09-1.37-4.79Z"/>
            <path class="cls-5" d="M2244.59,453.97c1.63-1.05,3.82-.58,4.87,1.05,1.05,1.63.58,3.82-1.05,4.87-1.63,1.05-3.82.58-4.87-1.05-1.05-1.63-.58-3.82,1.05-4.87Z"/>
            <path class="cls-5" d="M2256.65,483.92c1.95,0,3.52,1.58,3.52,3.52s-1.58,3.52-3.52,3.52-3.52-1.58-3.52-3.52,1.58-3.52,3.52-3.52Z"/>
            <path class="cls-5" d="M2250.49,518.67c1.38,1.38,1.38,3.61,0,4.98-1.38,1.38-3.61,1.38-4.98,0-1.38-1.38-1.38-3.61,0-4.98,1.38-1.38,3.61-1.38,4.98,0Z"/>
            <circle class="cls-5" cx="2225.88" cy="543.35" r="3.52"/>
            <path class="cls-5" d="M2191.8,552.29c0-1.95,1.58-3.52,3.52-3.52s3.52,1.58,3.52,3.52-1.58,3.52-3.52,3.52-3.52-1.58-3.52-3.52Z"/>
          </g>
          <g>
            <path class="cls-5" d="M2170.31,434.61c-.95-1.7-3.09-2.31-4.79-1.37-1.7.95-2.31,3.09-1.37,4.79.95,1.7,3.09,2.31,4.79,1.37,1.7-.95,2.31-3.09,1.37-4.79Z"/>
            <path class="cls-5" d="M2145.95,453.97c-1.63-1.05-3.82-.58-4.87,1.05-1.06,1.63-.58,3.82,1.05,4.87,1.64,1.05,3.82.58,4.87-1.05,1.05-1.63.59-3.82-1.05-4.87Z"/>
            <circle class="cls-5" cx="2133.88" cy="487.44" r="3.52"/>
            <path class="cls-5" d="M2140.04,518.67c-1.38,1.38-1.38,3.61,0,4.98s3.61,1.38,4.98,0c1.38-1.38,1.38-3.61,0-4.98-1.38-1.38-3.61-1.38-4.98,0Z"/>
            <path class="cls-5" d="M2162.17,540.86c-1.38,1.38-1.38,3.61,0,4.98,1.38,1.38,3.61,1.38,4.98,0s1.38-3.61,0-4.98-3.61-1.38-4.98,0Z"/>
          </g>
        </g>
        <g>
          <path class="cls-5" d="M2194.37,487.44c0-1.95,1.58-3.52,3.52-3.52s3.52,1.58,3.52,3.52-1.58,3.52-3.52,3.52-3.52-1.58-3.52-3.52Z"/>
          <rect class="cls-5" x="2197.42" y="443.42" width=".96" height="44.02"/>
          <rect class="cls-5" x="2194.29" y="476.78" width="29.67" height="2.89" transform="translate(176.2 1466.23) rotate(-38.13)"/>
        </g>
      </g>
      <g>
        <g>
          <path class="cls-19" d="M1642.15,1135.59s-.55,1.7-3.02,3.62c-1.75,2.24-3.69,4.99-4.1,6.67-.78,3.22-4.67,3.72-5.59.72-.31-1-.34-2.08-.15-3.17-6.35,1.43-15.75,1.95-29.67.02,0,0-10.81-1.04-2.09-8.56,5.83-5.03,9.8-4.24,18.12-11.21,8.33-6.96,19.18-9.5,26.26-5.73l9.02.79,2.79,15.22-11.56,1.63Z"/>
          <path class="cls-9" d="M1749.07,836.08s69.36,69,20.57,192.32c-13.17,33.29-120.69,109.53-120.69,109.53,0,0-12.45-11.26-9.09-21.9,0,0,70.48-96.49,80.68-101.08,9.05-4.07-2.71-112.74,3.27-139.75,5.98-27,25.26-39.12,25.26-39.12Z"/>
        </g>
        <path class="cls-4" d="M2001.89,1550.69s15.09,13.77,12.15,23.56c-2.95,9.79-16.56,16.31-18.4,28.27-1.84,11.96-9.2,18.48-15.83,18.48h-31.59s-4.88-8.42,6.9-10.95c11.78-2.54,16.22-16.59,15.48-29.64-.74-13.05,1.1-30.44,1.1-30.44l25.03-5.8,5.15,6.52Z"/>
        <path class="cls-12" d="M2001.89,1542.05c-2.76,8.16-33.13,20.12-33.13,20.12,0,0-16.56-26.09-69.56-119.6-4.56-8.06-9.33-16.89-14.24-26.31-52.05-99.99-119.37-266.16-119.37-266.16l128.65-35.87s6.07,51.64,7.17,77.74c.67,15.95,9.74,50.02,21.26,79.78,7.33,18.94,15.66,36.12,23.46,45.79,35.49,44.01,55.77,224.52,55.77,224.52Z"/>
        <path class="cls-25" d="M1922.67,1271.73c-8.09,41.01-22.93,109.69-37.71,144.52-52.05-99.99-119.37-266.16-119.37-266.16l128.65-35.87s6.07,51.64,7.17,77.74c.67,15.95,9.74,50.02,21.26,79.78Z"/>
        <path class="cls-4" d="M1816.75,1586.31s2.71,31.34-3.92,34.6l-84.79-.17s0-9.79,13.62-11.96c13.62-2.17,37.54-10.15,41.59-27.91,4.05-17.76,33.49,5.44,33.49,5.44Z"/>
        <path class="cls-12" d="M1745.16,1143.57s4.47,54.94,9.73,120.98c7.14,89.71,15.73,199.9,16.59,220.78,1.47,36.25,7.37,94.23,7.37,94.23,0,0,13.98,13.78,41.96,7.97,0,0,24.93-82.77,32.05-170.35.11-1.43.22-2.88.33-4.33,6.63-89.16,16.93-276.89,16.93-276.89l-124.95,7.61Z"/>
        <path class="cls-19" d="M1790.37,823.92s-44.42,40.68-77.01,36.04c0,0,6.53-14.46,13.06-26.22-2.08-6.06-3.78-11.33-5-15.84-3.02-10.37-3.98-16.36-3.98-16.36l18.14-19.69,17.18-18.81c5.53,44.22,37.61,60.88,37.61,60.88Z"/>
        <path class="cls-29" d="M1924.71,1211.57c-56.26,52.78-185.8,61.14-186.89,60.49-6.5-26.79-14.91-71.34-22.24-112.63-3.04-17.23-5.93-33.86-8.38-48.43-4.9-28.84-8.21-49.49-8.28-50.14,0,0-.21-1.57-.57-4.22-.57-4.05-1.44-10.65-2.41-17.98-1.03-7.86-2.15-16.59-3.06-24.01-.34-2.69-.64-5.2-.89-7.43,0-.13-.03-.24-.03-.37-.48-4.9.07-16.27,1.36-30.54.41-4.6.91-9.5,1.46-14.58.01-.13.03-.24.04-.38,3.38-30.51,9.17-67.46,15.32-85.24,3.2-9.15,14.48-36.02,14.48-36.02,11.08.4,18.33-4.02,28.78-11.38,11.45-8,23.78-16.61,26.21-15.3,18.15,9.26,33.42,34.16,44.76,67.32,6.5,19.1,103.12,328.22,100.33,330.85Z"/>
        <path class="cls-11" d="M1755.82,779.79s-9.62,27-34.41,38.1c-3.02-10.37-3.98-16.36-3.98-16.36l18.14-19.69,20.25-2.05Z"/>
        <path class="cls-19" d="M1707.85,802.34s52.72.13,52.46-32.22c-.26-32.36,6.36-54.13-27.31-55.58-33.67-1.45-40.11,10.98-42.69,21.81-2.58,10.83,3.82,65.13,17.54,65.99Z"/>
        <path class="cls-24" d="M1768.95,704.87c.38-.61,1.39-1.21,3.76-1.73,0,0-2.11-.89-4.67-.54-1.04-3.25-3.76-8.85-9.71-9.36,0,0,3.34,1.15,4.31,4.62-7.73-5.75-22.75-8.42-61.61,1.03-51.22,12.45-28.77,42.91-21.42,45.79,7.35,2.88,22.51-10.7,35.19-11.72,12.67-1.02,17.97,16.68,22.61,18.48,4.65,1.8,2.27-2.32,7.6-5.84s7.4,5.91,6.74,12.36c-.66,6.46,8.54,13.35,8.54,13.35l6.59-9.87c6.59-9.87,8.25-47.47,3.38-54.64-.43-.63-.86-1.28-1.3-1.92Z"/>
        <path class="cls-9" d="M1779.74,813.37s-7.01-13.1-11.15-14.04c0,0-52.05,21.18-60.46,83.83,0,0,15.13-40.05,71.61-69.79Z"/>
        <g>
          <path class="cls-7" d="M1522.65,1006.47l66.14,69.8-28.11,24.51s-69.3-69.21-68.04-69.98c1.25-.77,30.01-24.34,30.01-24.34Z"/>
          <path class="cls-22" d="M1493.43,973.56l32.65,34.58-29.52,27.87-32.65-34.58c-2.78-2.95-2.65-7.6.3-10.39l18.83-17.78c2.95-2.78,7.6-2.65,10.39.3Z"/>
          <rect class="cls-3" x="1545.87" y="1084.97" width="61.23" height="12.24" transform="translate(-318.87 1379.95) rotate(-43.35)"/>
          <rect class="cls-3" x="1596.13" y="1126.44" width="33.85" height="6.77" transform="translate(-335.47 1415.64) rotate(-43.35)"/>
          <rect class="cls-3" x="1588.63" y="1089.11" width="16.48" height="47.14" transform="translate(-328.13 1399.83) rotate(-43.35)"/>
          <path class="cls-3" d="M1483.04,973.26l-18.83,17.78c-2.95,2.78-3.08,7.44-.3,10.39l95.2,100.84c2.78,2.95,7.44,3.08,10.39.3l18.83-17.78c2.95-2.78,3.08-7.44.3-10.39l-95.2-100.84c-2.78-2.95-7.44-3.08-10.39-.3ZM1587.06,1075.88c1.97,2.08,1.87,5.37-.21,7.33l-18.83,17.78c-2.07,1.96-5.37,1.87-7.33-.21l-95.2-100.84c-1.96-2.07-1.86-5.37.21-7.33l18.83-17.78c2.08-1.97,5.37-1.86,7.33.21l95.2,100.84Z"/>
          <rect class="cls-3" x="1466.45" y="973.53" width="8.37" height="10.89" transform="translate(-270.79 1276.64) rotate(-43.35)"/>
          <rect class="cls-3" x="1450" y="931.22" width="1.35" height="53.21" transform="translate(-261.67 1257.43) rotate(-43.36)"/>
          <g>
            <rect class="cls-3" x="1474.44" y="991.32" width="17.36" height="1.61" transform="translate(-276.4 1288.84) rotate(-43.35)"/>
            <rect class="cls-3" x="1477.89" y="994.97" width="17.36" height="1.61" transform="translate(-277.96 1292.2) rotate(-43.35)"/>
            <rect class="cls-3" x="1481.61" y="998.91" width="17.36" height="1.61" transform="translate(-279.65 1295.84) rotate(-43.35)"/>
            <rect class="cls-3" x="1484.91" y="1002.41" width="17.36" height="1.61" transform="translate(-281.14 1299.13) rotate(-43.35)"/>
            <rect class="cls-3" x="1484.23" y="1005.77" width="25.06" height="1.61" transform="translate(-282.59 1302.19) rotate(-43.35)"/>
          </g>
          <g>
            <rect class="cls-3" x="1491.66" y="1009.56" width="17.36" height="1.61" transform="translate(-284.22 1305.64) rotate(-43.35)"/>
            <rect class="cls-3" x="1495.11" y="1013.21" width="17.36" height="1.61" transform="translate(-285.79 1309.01) rotate(-43.35)"/>
            <rect class="cls-3" x="1498.83" y="1017.15" width="17.36" height="1.61" transform="translate(-287.46 1312.7) rotate(-43.35)"/>
            <rect class="cls-3" x="1502.13" y="1020.65" width="17.36" height="1.61" transform="translate(-288.98 1315.85) rotate(-43.35)"/>
            <rect class="cls-3" x="1501.45" y="1024.01" width="25.07" height="1.61" transform="translate(-290.42 1318.93) rotate(-43.35)"/>
          </g>
          <g>
            <rect class="cls-3" x="1508.88" y="1027.8" width="17.36" height="1.61" transform="translate(-292.03 1322.52) rotate(-43.35)"/>
            <rect class="cls-3" x="1512.33" y="1031.45" width="17.36" height="1.61" transform="translate(-293.61 1325.79) rotate(-43.35)"/>
            <rect class="cls-3" x="1516.05" y="1035.39" width="17.36" height="1.61" transform="translate(-295.29 1329.5) rotate(-43.35)"/>
            <rect class="cls-3" x="1519.35" y="1038.89" width="17.36" height="1.61" transform="translate(-296.79 1332.72) rotate(-43.35)"/>
            <rect class="cls-3" x="1518.67" y="1042.25" width="25.06" height="1.6" transform="translate(-298.23 1335.78) rotate(-43.35)"/>
          </g>
          <g>
            <rect class="cls-3" x="1526.45" y="1046.4" width="17.36" height="1.61" transform="translate(-300.02 1339.58) rotate(-43.35)"/>
            <rect class="cls-3" x="1529.89" y="1050.05" width="17.36" height="1.61" transform="translate(-301.59 1342.94) rotate(-43.35)"/>
            <rect class="cls-3" x="1533.61" y="1053.99" width="17.36" height="1.6" transform="translate(-303.26 1346.64) rotate(-43.35)"/>
            <rect class="cls-3" x="1536.92" y="1057.49" width="17.36" height="1.61" transform="translate(-304.77 1349.86) rotate(-43.35)"/>
            <rect class="cls-3" x="1536.23" y="1060.85" width="25.07" height="1.61" transform="translate(-306.22 1352.86) rotate(-43.35)"/>
          </g>
          <g>
            <rect class="cls-3" x="1543.09" y="1064.03" width="17.36" height="1.6" transform="translate(-307.58 1355.81) rotate(-43.35)"/>
            <rect class="cls-3" x="1546.53" y="1067.68" width="17.36" height="1.61" transform="translate(-309.14 1359.24) rotate(-43.35)"/>
            <rect class="cls-3" x="1550.25" y="1071.62" width="17.36" height="1.61" transform="translate(-310.84 1362.8) rotate(-43.35)"/>
            <rect class="cls-3" x="1553.56" y="1075.12" width="17.36" height="1.61" transform="translate(-312.33 1366.09) rotate(-43.35)"/>
            <rect class="cls-3" x="1552.87" y="1078.47" width="25.06" height="1.61" transform="translate(-313.77 1369.14) rotate(-43.35)"/>
          </g>
        </g>
        <path class="cls-9" d="M1773.06,923.68c-.55,1.46-32.49,84.72-77.11,114.97-1.03-7.86-2.15-16.59-3.06-24.01-.34-2.69-.64-5.2-.89-7.43,0-.13-.03-.24-.03-.37-.48-4.9.07-16.27,1.36-30.54,8.25-11.93,14.81-20.49,14.81-20.49l64.92-32.14Z"/>
        <g>
          <path class="cls-19" d="M1505.5,1038.4s-19.24-14.88-25.2-14.44c-5.96.43-3.6,11.95.12,18.39,4.17,7.23,9.75,13.83,15.9,13.97,6.15.14,11.24-.99,11.24-.99l-2.06-16.92Z"/>
          <path class="cls-19" d="M1506.79,1037.39s-3.81-6.38-5.98-6.78c-2.17-.4-9.71.31-11.32,1.21-1.61.9,12.11,9.83,14.65,9.1,2.54-.73,2.65-3.53,2.65-3.53Z"/>
          <path class="cls-29" d="M1781.51,851.24s19.37,105.37-101.47,185.9c-32.62,21.74-176.94,23.27-176.94,23.27,0,0-4.18-17.89,5.48-25.38,0,0,123.62-42.86,135.66-40.63,10.68,1.98,67.9-103.15,90.13-123.72,22.23-20.57,47.13-19.45,47.13-19.45Z"/>
        </g>
      </g>
      <g>
        <path class="cls-11" d="M619.45,1147.3c-6.79-21.8-36.31-25.88-48.18-6.39-2.14,3.51-3.49,7.54-3.61,12.15-.65,25.56,49.75,124.48,56.44,133.23,12.18,15.93,85.7,54.24,85.7,54.24l15.62-2.28s-8.83-5.55-17.98-14.68c-18.89-18.86-46.43-49.52-51.47-53.76-8.66-7.29-23.63-81.13-36.52-122.51Z"/>
        <path class="cls-12" d="M640.79,1022.26c.41-1.64-35.66,16.3-37.49,18.33-16.92,18.76-12.09,43.25-2.41,43.49,6.21.15,5.01,10.47,5.01,10.47l69.16-29.26s-8.33-48.56-34.26-43.03Z"/>
        <path class="cls-12" d="M649.3,1026.05s2.47-26.94-27.63-26.94c0,0,9.12,2.47,13.84,7.42,0,0-19.2-11.27-40.09,6.05-20.89,17.32-7.91,60.76-14.27,69.01-6.35,8.25-31.1,9.9-28.07,36.56,3.02,26.67,78.53,60.07,73.68,82.13,0,0,29.59-43.5,8.43-63.34,0,0,10.31,9.71,11.36,21.26,0,0,2.8-22.54-11.55-29.75-12.69-6.38-23.09-29.72-21.99-33.89,1.1-4.17,36.29-68.5,36.29-68.5Z"/>
        <path class="cls-10" d="M564.75,1608.61l-14.97-2.2s-50.32-39.99-57.82-114.61c-.76-7.59-.92-15.3-.36-23.07.07-.9-.03-1.79-.52-2.55,0,0,0-.01-.02-.02-1.61-2.47-5.62-8.65-11.05-17.45-5.35-8.66-14.5-25.05-24.58-43.44-18.14-33.11-39.27-72.71-46.52-85.33-23.09-40.2-11.96-67.23-11.96-67.23,0,0,64.41-6.37,82.06-21.81l6.36,9.8s13.96,61.78,13.3,62.07c.69,2.1,1.39,4.24,2.09,6.42,11.01,33.99,23.68,76.48,30.59,111.08,3.88,19.47,5.94,36.43,4.83,47.99-.38,3.96.08,10.06,1.14,17.58,6.23,44.34,27.41,122.77,27.41,122.77Z"/>
        <path class="cls-4" d="M596.14,1627.55h-62.44s-1.5-9.52,1.76-16.74c3.12-6.93,7.58-7.15.57-18.01,3.97,4.09,16.72,5.78,25.75,4.56,1.11,1.79,7.13,13.82,10.83,16.48,4.08,2.93,22.28,1.89,23.53,13.71Z"/>
        <path class="cls-28" d="M500.77,1309.19c-5.45,30.08-18.34,80.15-45.33,96.08-18.14-33.11-39.27-72.71-46.52-85.33-23.09-40.2-11.96-67.23-11.96-67.23,0,0,64.41-6.37,82.06-21.81l6.36,9.8s13.96,61.78,13.3,62.07c.69,2.1,1.39,4.24,2.09,6.42Z"/>
        <path class="cls-10" d="M456.98,1257.36l.21-11.68c-23.27,2.93-80.23-27.8-80.23-27.8,0,0-24.34,16.19-27.67,62.43-1.63,22.57-11.92,118.01-13.05,146.51-.42,10.33-.55,17.7-.6,20.65,0,.01,0,.02,0,.03-.01.9-.44,1.69-.99,2.4-4.81,6.12-8.99,12.6-12.61,19.33-35.5,66.06-16.94,155.82-16.94,155.82l8.24-2.1s30.02-93.05,49.64-133.3c3.33-6.83,6.36-12.14,8.89-15.21,7.38-8.96,15.16-24.18,22.82-42.49,14.49-34.62,28.57-80.31,38.6-115.68.71.13,23.68-58.89,23.68-58.89Z"/>
        <path class="cls-19" d="M593.14,1179.42c-38.04-8.73-13.74-62.18-11.53-61.24,5.27-1.07,16.85-10.33,27.2-28.4l1.4,1.21,23.36,20.48s-5.4,7.97-9.94,15.77c-3.55,6.11-6.57,12.13-6.09,14.19,1.88,1.48-14.25,40.31-24.4,37.98Z"/>
        <path class="cls-9" d="M617.16,1139.72s6.69,13.2,10.26,24.63c3.57,11.43,12.5,47.79,12.5,47.79,0,0-18.41,21.01-44.03,19.78,0,0-13.77-21.56-8.92-41.03,4.85-19.47,30.19-51.18,30.19-51.18Z"/>
        <path class="cls-11" d="M633.57,1111.48s-5.4,7.96-9.94,15.77c-14.52-8.95-14.54-26.94-13.42-36.25l23.36,20.48Z"/>
        <path class="cls-19" d="M634.22,1121.74s-35.27-19.62-22.71-41.4c12.56-21.77,16.47-38.97,39.51-27.36,23.05,11.61,22.59,22.42,20.17,30.71-2.42,8.29-27.48,42.6-36.97,38.06Z"/>
        <path class="cls-12" d="M677.15,1070.98c-1.62-9.67-6.53-10.59-9.95-9.95-13.02-21.54-34.3-13.13-34.3-13.13-11.37,14.26-27.8,16.7-27.8,16.7,0,0,4.09,7.62,20.95,12.33,5.15,1.44,11,.57,16.63-1.33-11.7,6.52-23.93,9.02-23.93,9.02,22.22,2.03,43.36-18.28,45.56-20.46,1.03,3.15,2.82,9.74,1.75,14.56-1.46,6.55-7.28,18.41-3.73,19.94,0,0,17.24-13.19,14.82-27.68Z"/>
        <path class="cls-4" d="M354.76,1627.55h-62.44s-1.5-9.52,1.76-16.74c3.12-6.93,8.02-10.08,6.85-18.46,3.97,4.08,10.43,8.66,19.46,7.45,1.11,1.79,7.14,11.39,10.83,14.04,4.08,2.93,22.28,1.89,23.53,13.71Z"/>
        <path class="cls-29" d="M597.62,1221.79c-8.04,2.8-19.31,4.34-30.84,5.59-16.42,1.79-33.37,3.01-42.25,6.56-1.73.69-6.79,2.8-11.84,6.46h0s-.13.09-.35.27c-1.68,1.22-3.35,2.64-4.89,4.23-2.36,2.42-4.41,5.25-5.73,8.5-3.26,8.04,1.06,30.35,3.82,42.54,1.11,4.9-1.2,9.97-5.67,12.29-6.24,3.23-12.38,6.21-18.41,8.94-.32.15-.63.28-.95.43.06-1.24.08-2.47.08-3.67,0-8.41-1.06-15.41-1.06-15.41-1.48,8.49-7.08,17.66-12.29,24.72-83.79,33.62-142.34,19.01-141.38,2.26,3.31-58.16,42.52-107.62,42.52-107.62,73.14-85.05,221.09-107.45,221.09-107.45,0,0,7.09-.85,15.63,9.42,12.3,14.8,12.91,18.66,12.91,18.66,0,0,3.25,75.03-20.39,83.28Z"/>
        <path class="cls-9" d="M566.77,1227.39c-16.42,1.79-33.37,3.02-42.25,6.56-3.63-54.23,21.96-95.01,21.96-95.01,0,0,16.69,67.93,20.29,88.45Z"/>
        <path class="cls-9" d="M505.53,1295.95c1.11,4.9-1.2,9.97-5.67,12.29-6.24,3.23-12.38,6.21-18.41,8.94-.32-1.03-.61-2.1-.87-3.25-.95-4.25-1.39-9.32-1.06-15.41,1.4-25.74,18.93-45.24,27.92-53.61-2.36,2.42-4.41,5.25-5.73,8.5-3.26,8.04,1.06,30.35,3.82,42.54Z"/>
        <path class="cls-9" d="M589.47,1110.43s6.44-8.14,10.8-7.88c0,0,17.61,24.65,17.75,35.96,0,0-21.96-29.22-28.55-28.08Z"/>
        <path class="cls-11" d="M758.39,1348.97s-9.36.17-11.38-.12c-1.98-.29-4.63-1.15-7.3-1.24-2.62-.1-5.03.75-7.49,1.26-.37.07-.74.11-1.12.11h-15.53s-1.56-.74-3.26-3.49c-.73-1.19-.84-4.01-2.51-4.95-9.4-5.25,15.62-2.28,15.62-2.28,0,0,15.71-.29,17.16.8,2.58,1.94,16.4,9.17,15.81,9.91Z"/>
        <path class="cls-11" d="M715.57,1348.97s9.53,2.75,12.12,4.52l2.74,1.73s1.58-1.77-.91-3.73c-1.31-1.04-4.95-4.06-5.06-7.54s-10.88-.44-8.88,5.02Z"/>
        <g>
          <path class="cls-23" d="M1126.33,1499.04c-14.33-22.77-49.16-21.5-73.12-17.39-.01,0-.02,0-.03,0-1.59.27-3.12.56-4.6.85-11.81,2.32-20.02,5.04-20.02,5.04l-206.92-118.33-13.22-7.57s-13.49-72.9-55.4-77.28c-.79-.09-1.58-.14-2.39-.17-39.91-1.63-30.03,53.02-27.97,62.7.2.95.32,1.46.32,1.46,0,0-2.1-.01-5.45.29-13.51,1.23-47.35,7.66-45.13,41.29,2.03,30.81,52.9,36.62,79.78,37.53,11.42.39,22.59,3.61,32.48,9.26l184.29,105.4c12.03,6.88,22.11,16.53,29.44,28.01,14.54,22.78,43.14,59.3,70.66,46.63,1.65-.76,3.21-1.56,4.7-2.4.01,0,.01,0,.01,0,33.46-18.77,23.02-53.91,23.02-53.91,0,0,52.4-25.09,29.54-61.41Z"/>
          <path class="cls-14" d="M1126.33,1499.04c-14.33-22.77-49.16-21.5-73.12-17.39-.01,0-.02,0-.03,0-2.53.73-3.97,1.21-3.97,1.21l-.63-.36c-11.81,2.32-20.02,5.04-20.02,5.04l-206.92-118.33-6.36-3.64c-4.26-2.44-7.31-6.43-8.48-11.06-4.65-18.46-19.96-66.62-53.78-70.16-20.21,14.98-9.36,59.3-9.36,59.3,0,0-9.92-.07-20.99,3.22-1.68.5-3.4,1.08-5.12,1.75-13.07,5.12-25.87,15.51-24.47,36.61,2,30.26,51.1,36.4,78.31,37.47,3.68.14,6.97.2,9.68.2,5.49.01,10.9,1.48,15.66,4.2l199.35,114h0c8.23,4.71,15.07,11.38,19.89,19.34,2.41,3.98,5.41,8.67,8.87,13.6,12.15,17.3,15.08,44.66,48.92,40.3.01,0,.01,0,.01,0,33.46-18.77,23.02-53.91,23.02-53.91,0,0,52.4-25.09,29.54-61.41Z"/>
        </g>
        <path class="cls-19" d="M584.02,1128.44s-41.15,4.07-44.45,30.8c-3.3,26.74,39.45,135.64,45.57,145.5,11.15,17.95,76.78,79.49,76.78,79.49l12.1-7.33s-46.55-78.81-53.76-86.19c-11.32-11.58-22.31-153.02-36.24-162.28Z"/>
        <path class="cls-29" d="M605.1,1179.52s4.23-68.94-48.54-52.27c-52.77,16.67,8.19,135.25,8.19,135.25,0,0,30.97-1.53,41.95-28.55l-1.6-54.42Z"/>
        <path class="cls-19" d="M674.02,1376.91s6.81,6.05,11.99,7.33c5.18,1.28,11.07,16.12,12.01,18.24.94,2.12-4.95-.94-7.3-4.55-2.36-3.61-3.96-5.02-4.65-4.24-.69.79.41,10.68,4.34,16.17,3.93,5.5,6.28,10.36,3.45,10.05-2.83-.31-19.63-4.4-23.08-14.6-3.45-10.21-.92-10.56-8.86-21.06-7.94-10.5,12.1-7.33,12.1-7.33Z"/>
      </g>
      <g>
        <g>
          <path class="cls-19" d="M870.68,1202.75s1.54-.13,3.91,1.19c2.38.65,9.98,1.41,11.47,1.17,2.84-.46,2.17,3.14.08,4.89-.7.59-3.91.19-4.85.4,3.29,4.6,6.87,11.95,10.03,23.75,0,0,2.82,9-6.14,4.57-5.99-2.97-6.7-6.41-15.08-10.72s-14.07-12.15-13.44-19.08l-2.42-7.48,11.22-7.37,5.21,8.7Z"/>
          <path class="cls-9" d="M878.26,938.5s-49.8,34.81-73.24,134.65c-7.11,30.27,46.58,133.7,46.58,133.7,0,0,14.15-3.41,16.01-12.93,0,0-15.16-84.14-19.85-98.97-2.6-8.22,48.68-54.4,55.32-77.48,6.64-23.09-24.81-78.97-24.81-78.97Z"/>
        </g>
        <path class="cls-18" d="M811.61,1592.14s2.07,33.45,8.54,33.93c.86.06,32.82.06,32.82.06l40.8-.24s-.27-9.83-12.19-11.91c-11.93-2.08-31.89-10.46-39.11-26.22-7.6-16.58-30.86,4.38-30.86,4.38Z"/>
        <path class="cls-10" d="M809.26,1594.46s12.4,4.15,22.09,4.15c10.8,0,20.62-2.94,20.62-2.94,0,0,2.34-22.58,15.19-72.34,6.74-26.08,16.36-59.61,30.05-101.28,37.85-115.16,49.35-182.52,50.4-188.9.06-.33.08-.5.08-.5l-.12-.06-116.35-51.09s14.38,158.71-3.97,219.63c-2.57,8.51-4.77,18.44-6.66,29.19-11.59,66.17-11.32,164.14-11.32,164.14Z"/>
        <path class="cls-28" d="M820.58,1430.32l46.57,93.01c6.74-26.08,16.36-59.61,30.05-101.28,37.85-115.16,49.35-182.52,50.4-188.9-.01-.19-.02-.37-.04-.56l-116.35-51.09s14.38,158.71-3.97,219.63c-2.57,8.51-4.77,18.44-6.66,29.19Z"/>
        <path class="cls-18" d="M902.49,1592.14s2.07,33.45,8.55,33.93c.86.06,32.82.06,32.82.06l40.8-.24s-.27-9.83-12.19-11.91c-11.93-2.08-31.89-10.46-39.11-26.22-7.6-16.58-30.86,4.38-30.86,4.38Z"/>
        <path class="cls-10" d="M968.45,1185.24s1.51,102.85-16.28,229.12c-17.79,126.28-11.76,179.88-11.76,179.88,0,0-12.23,3.96-17.16,4.36-12.57,1.02-25.46-2.95-25.46-2.95,0,0-25.47-126.32-18.17-189.53,7.3-63.21-34.88-216.88-34.88-216.88l123.71-4.01Z"/>
        <path class="cls-19" d="M885.95,944.57l22.71,14.89,32.82-6.12c-.45-2.65-2.62-13.63-4.59-23.57-.12-.59-.24-1.17-.35-1.75-1.69-8.46-3.15-15.73-3.15-15.73l-30.65-13.52-11.43-5.04c.03.18.89,9.39,1.01,10.74,2.14,23.88-6.36,40.11-6.36,40.11Z"/>
        <path class="cls-29" d="M975.24,1189.69c-.47,54.29-4.08,181.28-6.75,183.86-28.27,27.29-152.64-7.48-159.23-37.56-6.58-30.06,25.06-385.53,73.35-399.72,10.02-2.94,63.6,14.38,63.6,14.38,0,0,8.4,21.98,13.91,49.99.67,3.4,1.84,13.62,3.23,27.57,1.37,13.61,2.97,30.78,4.54,48.62,1.75,19.7,3.46,40.24,4.84,57.7,1.03,13.19,1.87,24.62,2.36,32.65.2,3.31.25,11.39.16,22.51Z"/>
        <path class="cls-20" d="M894.61,904.88c6.73,11.4,31.81,21.26,42.27,24.89-.12-.59-.24-1.17-.35-1.75-1.69-8.46-3.15-15.73-3.15-15.73l-30.65-13.52c-6.77-.09-10.9,1.42-8.12,6.12Z"/>
        <path class="cls-19" d="M944.94,910.42s-49.37,15.4-58.49-15.49c-9.12-30.89-21.63-49.71,9.51-60.85,31.14-11.14,40.77-1.17,46.32,8.41,5.55,9.57,15.27,63.14,2.66,67.94Z"/>
        <path class="cls-18" d="M940.33,839.51s-3.15,35.95-10.58,34.39c-7.43-1.56-14.18-2.72-13.09,8.12,1.09,10.84,11.4,23.35-11.51,25.27-22.91,1.92-55.85-57.17-49.56-68.36,18.16-32.28,111-38.8,84.75.58Z"/>
        <path class="cls-9" d="M933.07,937.06c-.64-.27-36.75-16.47-40.98-15.08-4.22,1.39-9.49,14.29-9.49,14.29l63.6,14.38s-5.01-10.18-13.13-13.6Z"/>
        <circle class="cls-7" cx="1189.53" cy="973.99" r="66.66" transform="translate(-31.7 1907.92) rotate(-76.72)"/>
        <circle class="cls-6" cx="1184.44" cy="977.17" r="42.27"/>
        <path class="cls-7" d="M1111.84,1287.21c-11.66,0-23.25-4.11-34.61-12.3-31.45-22.66-61.14-75.64-88.24-157.48-20.1-60.71-28.2-109.32-28.31-109.86l-1.7-12.47c.11.54,14.25,59.88,34.23,120.21,18.36,55.42,48.23,127.23,86.28,154.65,16.14,11.63,32.72,14.48,49.26,8.45,67.99-24.76,55.32-246.75,55.18-248.99l4.53-.43c.03.57,3.39,57.52-1.96,116.88-3.15,34.99-8.67,64-16.4,86.22-9.83,28.27-23.32,45.7-40.09,51.8-6.07,2.21-12.13,3.31-18.18,3.31Z"/>
        <path class="cls-7" d="M919.9,881.48c0-2.21,1.79-4,4-4s4,1.79,4,4-1.79,4-4,4-4-1.79-4-4Z"/>
        <path class="cls-7" d="M943.45,946.18l-1.63-2.13c.06-.06,4.94-5,2.04-18.61-3-14.09-20.75-43.07-20.93-43.36l1.94-1.19c.74,1.2,18.13,29.61,21.22,44.08,3.17,14.87-2.36,20.92-2.64,21.21Z"/>
        <path class="cls-9" d="M967.88,1076.83c-29.08-9.22-64.81-59.37-64.81-59.37l60.27,10.75c1.37,13.61,2.97,30.78,4.54,48.62Z"/>
        <g>
          <path class="cls-19" d="M1168.04,1001.35s-.09-1.55,1.3-3.89c.71-2.36,2.13-9.34,1.95-10.84-.58-4.74,2.93-3.78,4.29.2.29.86.21,3.16.4,4.11,4.69-3.17,12.15-6.56,24.03-9.4,0,0,9.09-2.58,4.4,6.28-3.13,5.92-6.59,6.53-11.14,14.81-4.54,8.27-12.54,13.76-19.46,12.94l-7.55,2.22-7.07-11.45,8.85-4.98Z"/>
          <path class="cls-29" d="M900.89,964.19s-62.86,80.38,130.36,104.17c30.9,3.81,140.38-47.76,140.38-47.76,0,0-3.04-14.28-12.51-16.39,0,0-103.34,10.91-111.24,16.58-7.01,5.03-83.62-51.23-106.55-58.52-22.92-7.28-40.45,1.93-40.45,1.93Z"/>
        </g>
      </g>
      <path class="cls-16" d="M1301.38,1623.17h-115.68c-4.25,0-7.88-3.01-8.67-7.19-2.95-15.64-7.82-52.82,7.69-71.72,12.23-14.9,50.73-11.54,78.71-6.69,29.34,31.86,37.94,85.6,37.94,85.6Z"/>
      <path class="cls-1" d="M3.2,1622.34h2801c1.77,0,3.2,1.44,3.2,3.2v1.15c0,1.77-1.44,3.2-3.2,3.2H3.21c-1.77,0-3.21-1.44-3.21-3.21v-1.15c0-1.77,1.44-3.2,3.2-3.2Z"/>
    </g>
  </g>
</svg>