<?xml version="1.0" encoding="UTF-8"?>
<svg id="Capa_2" data-name="Capa 2" xmlns="http://www.w3.org/2000/svg" xmlns:xlink="http://www.w3.org/1999/xlink" viewBox="0 0 1300.1 880.79">
  <defs>
    <style>
      .cls-1, .cls-2 {
        opacity: .6;
      }

      .cls-1, .cls-3, .cls-4 {
        fill: #f77546;
      }

      .cls-5, .cls-6, .cls-7 {
        fill: #d72b3a;
      }

      .cls-6 {
        opacity: .59;
      }

      .cls-8, .cls-9, .cls-10, .cls-11 {
        fill: #ffc491;
      }

      .cls-8, .cls-12 {
        opacity: .5;
      }

      .cls-13 {
        fill: #541c1c;
      }

      .cls-14 {
        opacity: .07;
      }

      .cls-14, .cls-15, .cls-16 {
        fill: #d44528;
      }

      .cls-17 {
        fill: #f76a3e;
      }

      .cls-18 {
        opacity: .3;
      }

      .cls-18, .cls-19 {
        fill: #ac3720;
      }

      .cls-20 {
        fill: #ff955a;
      }

      .cls-21 {
        fill: #ffd0a7;
      }

      .cls-19 {
        opacity: .35;
      }

      .cls-22 {
        opacity: .36;
      }

      .cls-22, .cls-23, .cls-24, .cls-25, .cls-26 {
        fill: #fff;
      }

      .cls-4 {
        opacity: .56;
      }

      .cls-27 {
        fill: #eca387;
      }

      .cls-28 {
        fill: #f7b27f;
      }

      .cls-29 {
        fill: none;
      }

      .cls-30 {
        fill: #f7b584;
      }

      .cls-30, .cls-9 {
        opacity: .76;
      }

      .cls-31 {
        opacity: .47;
      }

      .cls-31, .cls-32 {
        fill: #80172e;
      }

      .cls-33 {
        fill: #f44a3f;
      }

      .cls-34 {
        fill: #f4b07d;
      }

      .cls-24 {
        opacity: .37;
      }

      .cls-35 {
        fill: #671124;
      }

      .cls-36 {
        fill: url(#_Áåçûìÿííûé_ãðàäèåíò_5);
      }

      .cls-15 {
        opacity: .14;
      }

      .cls-25 {
        opacity: .28;
      }

      .cls-37 {
        opacity: .65;
      }

      .cls-37, .cls-38 {
        fill: #421515;
      }

      .cls-39 {
        fill: #f1b092;
      }

      .cls-40 {
        fill: #8fcad8;
      }

      .cls-41, .cls-42 {
        fill: #ff8a50;
      }

      .cls-26 {
        opacity: .22;
      }

      .cls-43 {
        fill: url(#_Áåçûìÿííûé_ãðàäèåíò_6);
      }

      .cls-44 {
        fill: #ffe4d2;
      }

      .cls-42 {
        opacity: .57;
      }

      .cls-10 {
        opacity: .38;
      }

      .cls-45 {
        fill: #ffdfc7;
      }

      .cls-46 {
        fill: #ff6428;
      }

      .cls-47 {
        fill: #f49967;
      }

      .cls-48 {
        fill: #fc9c6d;
      }

      .cls-49 {
        fill: url(#linear-gradient);
      }

      .cls-50 {
        fill: #ec886e;
      }

      .cls-51 {
        clip-path: url(#clippath);
      }

      .cls-7 {
        opacity: .4;
      }
    </style>
    <clipPath id="clippath">
      <path class="cls-29" d="M1222.27,553.95s27.31-47.88,24.55-48.61c-2.77-.73-38.28,13.11-61.99,27.22-1.65.98-3.22,1.97-4.73,2.96,1.55-16.57,2.54-33.56,2.9-50.82.3-14.81,42.66-32.79,41.96-47.9-.18-3.9-42.93-4.82-43.18-8.73C1168.28,220.63,1051.86-2.12,677.98.02c-293.62,1.68-370.35,285.55-411.43,335.14-37.29,45.02-141.24,109.4-170.48,184.26-76.1,194.84,13.34,306.75,86.83,316.27,93.47,12.11,408.2,3.31,655.65-5.65,80.7-2.92,181.85-8.75,251.08-65.61,21.33-10.8,48.81-26.34,61.71-40.38,22.71-24.72,13.53-33.17,13.53-33.17,0,0,25.52-19.98,29.44-34.21,1.32-4.78-10.44-4.93-10.44-4.93,0,0,26.49-28.82,27.52-50.01.25-5.2-6.8,2.59-6.8,2.59,0,0,15.56-24.13,19.98-36.72,4.42-12.59-2.31-13.64-2.31-13.64Z"/>
    </clipPath>
    <linearGradient id="linear-gradient" x1="703.19" y1="238.08" x2="707.39" y2="269.73" gradientUnits="userSpaceOnUse">
      <stop offset="0" stop-color="#f1b092"/>
      <stop offset="1" stop-color="#ec886e"/>
    </linearGradient>
    <linearGradient id="_Áåçûìÿííûé_ãðàäèåíò_6" data-name="Áåçûìÿííûé ãðàäèåíò 6" x1="392.81" y1="497.4" x2="388.48" y2="485.34" gradientUnits="userSpaceOnUse">
      <stop offset=".04" stop-color="#ff6428"/>
      <stop offset="1" stop-color="#ff7641"/>
    </linearGradient>
    <linearGradient id="_Áåçûìÿííûé_ãðàäèåíò_5" data-name="Áåçûìÿííûé ãðàäèåíò 5" x1="700.38" y1="116.6" x2="720.32" y2="185.85" gradientUnits="userSpaceOnUse">
      <stop offset="0" stop-color="#692424"/>
      <stop offset="1" stop-color="#541c1c"/>
    </linearGradient>
  </defs>
  <g id="Layer_1" data-name="Layer 1">
    <g class="cls-51">
      <path class="cls-40" d="M182.91,835.69c-73.5-9.52-162.94-121.43-86.83-316.27,29.24-74.86,133.18-139.24,170.47-184.26C307.64,285.57,384.36,1.69,677.98.02c526.56-3.01,542.44,440.07,479.31,658.16-45.61,157.55-203.16,167.68-318.74,171.86-247.44,8.96-562.17,17.76-655.65,5.65Z"/>
      <g>
        <rect class="cls-21" x="9.5" y="594.3" width="1286.9" height="282.29"/>
        <path class="cls-47" d="M1.46,642.2C.65,642.2,0,641.55,0,640.74c0-.81.65-1.46,1.46-1.46l1297.19-1.35c.81,0,1.46.65,1.46,1.46,0,.81-.65,1.46-1.46,1.46L1.46,642.2h0Z"/>
        <path class="cls-47" d="M179.04,839.4c-.8,0-1.45-.65-1.46-1.45l-.75-185.62c0-.8.65-1.46,1.45-1.46.81,0,1.46.65,1.46,1.45l.75,185.62c0,.8-.65,1.46-1.45,1.46h0Z"/>
        <path class="cls-47" d="M151.8,741.28c-1.6,0-2.9-1.29-2.91-2.9l-.05-7.46c-.01-1.61,1.29-2.92,2.9-2.93,1.62,0,2.92,1.29,2.93,2.9l.05,7.46c0,1.61-1.29,2.92-2.9,2.93h-.02Z"/>
        <path class="cls-47" d="M203.12,741.28c-1.6,0-2.9-1.29-2.91-2.9l-.05-7.46c0-1.61,1.29-2.92,2.9-2.93,1.61-.04,2.92,1.28,2.93,2.9l.05,7.46c0,1.61-1.29,2.92-2.9,2.93h-.02Z"/>
        <path class="cls-47" d="M1037.78,673.8s-78.06-.3-78.06-.3c-.8,0-1.45-.66-1.45-1.46,0-.8.65-1.45,1.46-1.45,0,0,78.06.3,78.06.3.8,0,1.45.66,1.45,1.46,0,.8-.65,1.45-1.46,1.45Z"/>
        <path class="cls-47" d="M963.08,706.59c-.8,0-1.45-.65-1.46-1.45,0-.8.64-1.46,1.45-1.47l75.45-.47c.81,0,1.46.65,1.47,1.45,0,.8-.64,1.46-1.45,1.47l-75.45.47h0Z"/>
        <path class="cls-47" d="M963.08,741.75c-.8,0-1.45-.65-1.46-1.45,0-.8.64-1.46,1.45-1.47l75.45-.47c.81,0,1.46.65,1.47,1.45,0,.8-.64,1.46-1.45,1.47l-75.45.47h0Z"/>
      </g>
      <g>
        <rect class="cls-22" x="848.86" y="87.57" width="244.75" height="294.64"/>
        <g>
          <ellipse class="cls-24" cx="894.82" cy="157.22" rx="20.32" ry="20.75"/>
          <path class="cls-1" d="M941.77,179.52c-.21,0-.43-.05-.63-.15l-25.89-12.57c-.72-.35-1.03-1.22-.67-1.95.35-.72,1.22-1.03,1.95-.67l25.89,12.57c.72.35,1.03,1.22.67,1.95-.25.52-.77.82-1.31.82Z"/>
          <path class="cls-4" d="M905.05,154.04h-20.46c-.81,0-1.46-.65-1.46-1.46s.65-1.46,1.46-1.46h20.46c.81,0,1.46.65,1.46,1.46s-.65,1.46-1.46,1.46Z"/>
          <path class="cls-4" d="M905.05,161.25h-20.46c-.81,0-1.46-.65-1.46-1.46s.65-1.46,1.46-1.46h20.46c.81,0,1.46.65,1.46,1.46s-.65,1.46-1.46,1.46Z"/>
        </g>
        <g class="cls-2">
          <path class="cls-3" d="M1024.38,329.95h-98.97c-.81,0-1.46-.65-1.46-1.46s.65-1.46,1.46-1.46h98.97c.81,0,1.46.65,1.46,1.46s-.65,1.46-1.46,1.46Z"/>
          <path class="cls-3" d="M1024.38,339.45h-98.97c-.81,0-1.46-.65-1.46-1.46s.65-1.46,1.46-1.46h98.97c.81,0,1.46.65,1.46,1.46s-.65,1.46-1.46,1.46Z"/>
          <path class="cls-3" d="M1009.34,348.89h-83.93c-.81,0-1.46-.65-1.46-1.46s.65-1.46,1.46-1.46h83.93c.81,0,1.46.65,1.46,1.46s-.65,1.46-1.46,1.46Z"/>
        </g>
        <g class="cls-2">
          <path class="cls-3" d="M1066.96,189.9h-25.83c-.81,0-1.46-.65-1.46-1.46s.65-1.46,1.46-1.46h25.83c.81,0,1.46.65,1.46,1.46s-.65,1.46-1.46,1.46Z"/>
          <path class="cls-3" d="M1066.96,198.32h-25.83c-.81,0-1.46-.65-1.46-1.46s.65-1.46,1.46-1.46h25.83c.81,0,1.46.65,1.46,1.46s-.65,1.46-1.46,1.46Z"/>
          <path class="cls-3" d="M1059.88,206.37h-18.75c-.81,0-1.46-.65-1.46-1.46s.65-1.46,1.46-1.46h18.75c.81,0,1.46.65,1.46,1.46s-.65,1.46-1.46,1.46Z"/>
        </g>
        <g class="cls-2">
          <path class="cls-3" d="M900.85,245.16h-25.83c-.81,0-1.46-.65-1.46-1.46s.65-1.46,1.46-1.46h25.83c.81,0,1.46.65,1.46,1.46s-.65,1.46-1.46,1.46Z"/>
          <path class="cls-3" d="M900.85,253.58h-25.83c-.81,0-1.46-.65-1.46-1.46s.65-1.46,1.46-1.46h25.83c.81,0,1.46.65,1.46,1.46s-.65,1.46-1.46,1.46Z"/>
          <path class="cls-3" d="M893.76,261.62h-18.75c-.81,0-1.46-.65-1.46-1.46s.65-1.46,1.46-1.46h18.75c.81,0,1.46.65,1.46,1.46s-.65,1.46-1.46,1.46Z"/>
        </g>
        <path class="cls-30" d="M1027.81,282.4s-1.83-18.96-20.86-20.46c-19.34-1.53-26.11,17.66-26.11,17.66l5.77-31.83s10.56-19.77,8.37-33.73c-2.54-16.19-9.76-16.16-9.32-32.17.38-13.81,11.11-11.11,13.33-19.18,1.44-5.23-2.91-16.35-10.78-20.63.07,0-4.44-15.21-6.82-15.16-1.02.02-3.18,4.36-4.95,8.33-.51-1.26-2.99-7.16-3.94-5.96-1.03,1.3-3.12,13.37-3.27,14.22-18.63,11.82-11.1,52.91-11.1,52.91,0,0-15.83,9.63-24.59,29.06-12.52,27.78-7.02,50.09-7.02,50.09,0,0-18.15,12.55-.31,26.84,13.72,10.98,35.98,3.64,58.46.14,20.31-3.16,20.86,3.98,31.85-.55,12.6-5.2,11.28-19.57,11.28-19.57Z"/>
      </g>
      <path class="cls-46" d="M404.12,480.41s.78-3.08,2.72-6.06c2.49-3.82,6.48-7.67,8.89-6.58,1.99.89,4.48,5.89,5.35,10.38,1.01,5.23.22,9.97.22,9.97l-17.18-7.71Z"/>
      <path class="cls-23" d="M439.65,504.74s-4.61-5.03-9.11-9.18c-9.04-8.34-19.78-17.07-33.3-15.79-43.1,4.09-46.21,39.01-47.57,64.96-.71,13.62-9.35,26.74-15.09,33.79-18.28,22.47-48.43,38.59-63.83,64.25-34.2,56.97-1.77,101.81-1.77,101.81,0,0-19.5,3.29-25.98,24.61-7.5,24.68,14.08,38.13,30.7,44.12,36.24,13.06,102.01-8.14,134.62-7.44,14.51.31,35.94,7.12,62.82,5.62,9.45-.53,1.96-5.09,1.96-5.09,0,0,11.45-1.02,10.96-5.94-.76-7.58-13.12-13.73-13.12-13.73,0,0,2.25-12.03-13.04-23.92-12.15-9.45-27.66-6.99-27.66-6.99,0,0-.02-3.95-5.81-7.3-9.24-5.35-18.36-4.15-18.36-4.15,0,0-2.63,3.33,5.44-25.42,8.07-28.75,25.01-65.04,27.08-89.92,3.21-38.6-8.98-36.42-6.73-63.68,2.25-27.26,14.43-28.95,16.37-44.11,1.95-15.15-8.59-16.5-8.59-16.5Z"/>
      <path class="cls-46" d="M353.89,514.05c5-17.01,16.3-31.71,43.34-34.27,3.88-.37,7.52.09,10.97,1.12l.05.33c2.51,3.69,13.34,22.24-7.18,41.71-12.37,11.74-32.2,7.44-35.01,4.13-2.49-2.93-.14-4.44-.14-4.44,0,0-3.38,1.31-8.25-1.09-4.87-2.4-3.49-6.98-3.49-6.98l-.3-.51Z"/>
      <path class="cls-46" d="M442.58,506.09s-12.34,2.54-11.57,10.85c1.22,13.19,13.18,12.82,16.09,9.3l.12-.3c.45-1.43.81-2.97,1.03-4.69,1.18-9.18-2.23-13.3-5.1-15.11l-.56-.04Z"/>
      <path class="cls-44" d="M651.55,396.76s-18.52,10.98-25.1,44.39c-10.05,51-20.55,153.44-20.55,153.44l-117.49-9.47.44,39.97s35.27,17.89,77.9,30.37c42.63,12.49,92.62,19.58,92.62,19.58l10.4-214.7-18.23-63.57Z"/>
      <path class="cls-27" d="M716.96,307.69s2.4,3.48,1.29,17.69c-2.27,28.93-23.72,37.09-23.72,37.09,0,0,24.26,18.62,51.4,16.01,47.57-4.58,54.4-36.39,54.4-36.39,0,0-18.4-6.65-23.12-20.47-11.15-32.64-5.66-81.67-5.66-81.67l-54.57,67.73Z"/>
      <path class="cls-50" d="M755.52,278.08s-2.94,26.81-17.22,40c-10.86,10.03-20.03,6.09-20.03,6.09,0,0,.55-3.08.34-7.67-.19-4.2-1.35-8.93-1.35-8.93l38.26-29.5Z"/>
      <path class="cls-13" d="M662.7,168.26c-2.16,17.11,12.11,33.05,12.11,33.05l2.93-26.11s-14.22-13.45-15.04-6.94Z"/>
      <path class="cls-39" d="M671.38,174.68s2.61,22.81,5.38,46.42c4.99,42.52,15.24,88.23,44.39,88.78,30.23.56,45.72-62.54,45.72-62.54,0,0,23.47-32.5,7.46-41.93-7.79-4.59-13.36,7.52-13.36,7.52,0,0,8.19-56.48-38.61-59.8-24.29-1.73-50.97,21.56-50.97,21.56Z"/>
      <path class="cls-50" d="M671.25,174.17l1.15,8.89s2.52,11.69,25.8,12.99c9.53.54,18.9-2.95,27.32-4.05,3.23-.42,8.84.49,14.96,4.39,5.98,3.8,19.98,16.59,20.44,15.82,9.25-15.57-2.53-43.17-24.97-52.69-22.44-9.52-64.69,14.65-64.69,14.65Z"/>
      <path class="cls-49" d="M706.41,237.38c-1.91.35,1.47,11.85-1.39,22.42-1.17,4.33-8.09,6.8-4.75,10.69,3.46,4.03,10.27-.28,11.69-7.09,2.78-13.34-1.39-26.79-5.55-26.02Z"/>
      <path class="cls-5" d="M714.98,285.01c-2.57,0-4.4-.43-4.59-.48-.78-.19-1.26-.98-1.06-1.77.19-.78.97-1.26,1.76-1.06.41.1,10.25,2.39,16.08-5.22.49-.64,1.41-.76,2.04-.27.64.49.76,1.4.27,2.04-4.31,5.64-10.37,6.76-14.5,6.76Z"/>
      <path class="cls-35" d="M730.98,228.77c0-3.85,1.65-6.98,3.69-6.98s3.69,3.12,3.69,6.98-1.65,6.98-3.69,6.98-3.69-3.12-3.69-6.98Z"/>
      <path class="cls-35" d="M683.47,229.03c0-3.79,1.71-6.87,3.81-6.87s3.81,3.08,3.81,6.87-1.71,6.87-3.81,6.87-3.81-3.08-3.81-6.87Z"/>
      <path class="cls-13" d="M688.84,212.4c-2.72-.16-5.56,1.56-7.53,3.9-.34.41-.94.46-1.34.12-.38-.32-.44-.86-.17-1.26.99-1.45,2.23-2.76,3.73-3.79,1.49-1.03,3.32-1.77,5.28-1.88.84-.05,1.53.57,1.58,1.38.04.81-.57,1.49-1.38,1.54-.06,0-.11,0-.16,0Z"/>
      <path class="cls-13" d="M726.69,207.24c2.3-.39,4.4.13,6.25.87.94.37,1.82.82,2.67,1.31.86.5,1.66,1.01,2.48,1.63.45.34.54.98.2,1.43-.32.43-.92.53-1.36.24-.75-.48-1.57-.92-2.36-1.3-.81-.38-1.63-.72-2.46-.97-1.65-.52-3.37-.73-4.78-.36-.8.21-1.6-.25-1.8-1.03s.26-1.58,1.04-1.78c.04-.01.08-.02.13-.03Z"/>
      <path class="cls-50" d="M771.23,214.87c-3.97.46-5.75,10.75-1.51,10.03,3.29-.55,4.88-10.42,1.51-10.03Z"/>
      <path class="cls-32" d="M700.34,358.83s9.24,20.27,44.64,18.76c46.07-1.96,51.27-36.86,51.27-36.86l35.51,14.35,23.12,478.14-165.31-.24s-43.26-337.59-19.02-453.51c.61-2.92,29.8-20.63,29.8-20.63Z"/>
      <path class="cls-23" d="M646.64,407.8c2.87,92.7,7.96,173.24,11.71,237.32,3.75,64.08,6.98,189.91,6.98,189.91l76.91-2.23s-6.35-241.54-18.14-360.23c-8.87-89.27-22.51-113.97-22.51-113.97,0,0-10.27,3.94-30.02,19.84-22.4,18.03-25.16,21.56-24.92,29.36Z"/>
      <path class="cls-23" d="M793.12,338.67s-7.54-7.36-7.27,116.5c.34,159.81,27.52,378.54,27.52,378.54l109.19-.85-42.72-452.4s-18.12-11.37-39.8-21.82c-21.68-10.45-46.91-19.96-46.91-19.96Z"/>
      <path class="cls-8" d="M680.58,371.91l-14.16,72.01,31.7-10.91-16.55,34.95s11.59,33.88,24.35,68.99c12.77,35.1,26.71,71.43,26.71,71.43l-24.21-186.3-23.39-53.56-4.45,3.39Z"/>
      <polygon class="cls-27" points="856.63 730.29 848.94 750.65 884.16 748.82 888.6 730.32 856.63 730.29"/>
      <polygon class="cls-50" points="856.82 730.25 853.35 738.6 886.63 738.25 889.26 728.85 856.82 730.25"/>
      <path class="cls-32" d="M736.74,359.28c-13.69,0-25.31-4.86-34.57-14.46-32.13-33.31-25.85-111.8-25.56-115.12.07-.8.75-1.4,1.58-1.33.8.07,1.4.77,1.33,1.58-.07.8-6.45,80.5,24.76,112.85,9.31,9.65,21.16,14.18,35.25,13.5,16.16-.79,27.93-9.58,34.99-26.12,15.58-36.53,2.92-97.72-5.19-107.05-.53-.61-.46-1.53.14-2.06.61-.53,1.53-.47,2.06.14,9.89,11.38,21.22,73.66,5.67,110.11-7.53,17.66-20.16,27.04-37.53,27.89-.98.05-1.96.07-2.92.07Z"/>
      <path class="cls-28" d="M659.55,675.33c-.58,0-1.06-.45-1.09-1.03l-8.72-160.77c-.03-.6.43-1.12,1.03-1.15.63-.05,1.12.43,1.15,1.03l8.72,160.77c.03.6-.43,1.12-1.03,1.15-.02,0-.04,0-.06,0Z"/>
      <ellipse class="cls-32" cx="391.39" cy="593.5" rx="14.86" ry="15.41"/>
      <path class="cls-41" d="M1151.99,561.8s9.13-15.12,32.83-29.24c23.7-14.11,59.22-27.95,61.99-27.22,2.77.73-24.54,48.61-24.54,48.61,0,0,6.72,1.05,2.31,13.64-4.42,12.59-19.98,36.72-19.98,36.72,0,0,7.06-7.79,6.8-2.59-1.03,21.18-27.52,50.01-27.52,50.01,0,0,11.76.15,10.44,4.93-3.92,14.23-29.44,34.21-29.44,34.21,0,0,9.18,8.45-13.53,33.17-22.71,24.72-90.59,54.07-90.59,54.07l56.47-170.31,34.77-46.01Z"/>
      <path class="cls-15" d="M1151.94,561.45l4.45-5.6,7.95-7.29s10.96,2.05,5.65,18.15c-3.95,11.97-13.52,27.89-13.52,27.89,0,0,8.8-7.25,8.06,6.56-.88,16.28-24.03,42.48-24.03,42.48,0,0,15.58-5.53,11.83,6.45-3.74,11.98-29.54,44.51-29.54,44.51,0,0,24.22-16.04,14.04,6.67-19.84,44.23-56.75,83.25-56.75,83.25l-7.11,5.65,40.25-184.86,38.72-43.86Z"/>
      <path class="cls-42" d="M1051.09,541.3c-3.72,3.21-13.95-10.93-11.89-29.05,2.07-18.13,16.36-46.73,20.16-43.46,12.41,10.69-4.55,69.3-8.27,72.51Z"/>
      <path class="cls-48" d="M1184.59,475.02s37.19-41.02,26.61-36.88c-24.73,9.69-26.61,36.88-26.61,36.88Z"/>
      <path class="cls-41" d="M1031.52,765.21s3.39-29.8-5.62-52.72c-9.01-22.92-24.96-38.04-30.43-38.96-5.48-.92,5.04,28.88,5.04,28.88,0,0-7.56,1.36-4.65,16.48,7.87,40.92,35.67,46.33,35.67,46.33Z"/>
      <path class="cls-31" d="M481.85,251.37l13.19-10.91,8.53-.15,13.89,11.07c.98.78,1.56,1.97,1.56,3.23v51.17h-38.66v-51.22c0-1.23.55-2.4,1.5-3.18Z"/>
      <rect class="cls-26" x="491" y="257.21" width="17.37" height="14.78"/>
      <rect class="cls-45" x="491.08" y="230.4" width="17.22" height="12.04" rx="2.07" ry="2.07"/>
      <path class="cls-31" d="M431.14,251.37l13.19-10.91,8.53-.15,13.89,11.07c.98.78,1.56,1.97,1.56,3.23v51.17h-38.66v-51.22c0-1.23.55-2.4,1.5-3.18Z"/>
      <rect class="cls-26" x="440.29" y="257.21" width="17.37" height="14.78"/>
      <rect class="cls-45" x="440.37" y="230.4" width="17.22" height="12.04" rx="2.07" ry="2.07"/>
      <rect class="cls-50" x="269.17" y="373.62" width="149.04" height="25.4"/>
      <rect class="cls-20" x="269.15" y="354.03" width="137.39" height="19.57"/>
      <rect class="cls-34" x="343.27" y="104.59" width="38.87" height="97.42"/>
      <rect class="cls-20" x="381.65" y="104.88" width="42.8" height="96.24"/>
      <path class="cls-18" d="M488.11,136.78h38.59c1.14,0,2.07.92,2.07,2.07v62.09h-42.72v-62.09c0-1.14.92-2.07,2.07-2.07Z"/>
      <path class="cls-45" d="M496.22,130.7h22.37c1.14,0,2.07.81,2.07,1.8v4.45h-26.5v-4.45c0-.99.92-1.8,2.07-1.8Z"/>
      <rect class="cls-26" x="498.37" y="150.85" width="18.08" height="15.6"/>
      <path class="cls-32" d="M439.54,504.68s-2.33,1.62-1.47,3.23c2,3.74,7.66.62,7.66.62,0,0-.29-1.2-2.34-2.83-1.43-1.13-3.84-1.02-3.84-1.02Z"/>
      <path class="cls-32" d="M420.55,510.3s-.1,0-.15,0c-.8-.08-1.38-.8-1.3-1.6.18-1.8,1.58-5.25,5.53-5.4.79-.05,1.48.6,1.51,1.4.03.8-.6,1.48-1.4,1.51-2.43.09-2.72,2.67-2.73,2.78-.08.75-.71,1.31-1.45,1.31Z"/>
      <path class="cls-43" d="M382.43,470.8c-4.37,1.92-6.69,12.79-6.86,15.83-.3,5.37,1.48,11.87,1.48,11.87,0,0,6.85,6.37,17.21.86,9.69-5.16,9.98-15.12,9.98-15.12,0,0-4.99-5.95-9.02-8.69-5.02-3.42-11.26-5.42-12.8-4.75Z"/>
      <path class="cls-47" d="M386.22,557.6c-.2,0-.41-.04-.6-.13-.73-.33-1.06-1.2-.73-1.93.01-.03,1.46-3.28,1.21-6.47-.06-.8.54-1.5,1.34-1.57.8-.08,1.5.54,1.57,1.34.31,3.95-1.39,7.74-1.46,7.9-.24.54-.77.85-1.33.85Z"/>
      <path class="cls-47" d="M368.28,575.69c-.41,0-.83-.18-1.11-.52-.52-.61-.44-1.53.17-2.05.03-.02,3.1-2.71,4.67-8.05.23-.77,1.04-1.21,1.81-.99.77.23,1.21,1.04.99,1.81-1.83,6.23-5.43,9.33-5.58,9.46-.27.23-.61.34-.94.34Z"/>
      <path class="cls-47" d="M412.49,673.18c-.28,0-.56-.08-.81-.25-.67-.45-.84-1.36-.39-2.02.02-.02,1.76-2.68,2.34-6.53.12-.8.87-1.33,1.66-1.23.8.12,1.34.86,1.23,1.66-.68,4.53-2.72,7.6-2.81,7.73-.28.42-.74.64-1.21.64Z"/>
      <path class="cls-9" d="M388.54,477.59c-1.92,1.8-2.11,16.67,1.97,17.94,4.08,1.28,9.93-3.64,10.26-7.86s-10.31-11.88-12.23-10.08Z"/>
      <path class="cls-36" d="M761.05,212.57s-1.28-6.44-6.74-13.01c-5.7-6.87-9.64-8.09-16.12-15.08-6.48-6.99-8.22-12.92-8.22-12.92,0,0-7.06,11.19-29.61,9.55-21.64-1.57-33.59-8.29-39.33-12.5-11.28-8.25-4.76-15.13-4.76-15.13,0,0-17.88-9.52-20.79-13.86-12.13-18.08,16.63-15.14,16.63-15.14,0,0-17.06-15.38-7.7-26.05,9.94-11.34,41.95,5.92,41.95,5.92,0,0,54.45-3.66,81.2,21.75,43.01,40.84,4.65,145.12,3.75,144.72-.9-.41-2.15-2.97-3.54-8.84-1.39-5.87-1.47-13.12-1.47-13.12,0,0,20.02-30.17,10.52-41.11-6.7-7.72-12.13.25-12.13.25l-3.65,4.57Z"/>
      <path class="cls-38" d="M666.39,155.29c-.18,0-.36-.04-.53-.14-5.94-3.28-9.08-.88-9.21-.77-.47.37-1.16.31-1.53-.16-.38-.46-.32-1.14.14-1.53.17-.14,4.33-3.5,11.65.54.53.29.72.96.43,1.48-.2.36-.57.57-.96.57Z"/>
      <path class="cls-37" d="M645.86,117.09s5.02-1.91,10.86,1.18c5.84,3.09,12.25,11.32,12.25,11.32,0,0-5.73-2.76-9.79-3.87-4.38-1.2-7.43-1.16-7.43-1.16,0,0-1.73-1.73-3.21-3.6-1.47-1.86-2.68-3.86-2.68-3.86Z"/>
      <path class="cls-38" d="M759.86,211.69c-.51-1.84-1.44-3.79-2.46-5.54-1.03-1.79-2.25-3.47-3.57-5.05-2.65-3.23-5.74-5.89-9.16-8.46-3.43-2.62-6.75-5.55-9.66-8.9-1.46-1.68-2.81-3.46-4.02-5.35-.6-.95-1.17-1.92-1.69-2.93-.53-1.04-.99-1.99-1.43-3.27,0,0,3.94.55,3.94.55-.41.65-.69,1.01-1.06,1.47-.35.43-.71.83-1.09,1.23-.76.77-1.57,1.46-2.41,2.11-1.69,1.29-3.51,2.36-5.4,3.25-3.81,1.74-7.87,2.71-11.92,3.14-4.04.45-8.15.32-12.05-.07-3.92-.34-7.83-.95-11.7-1.8-7.72-1.71-15.33-4.44-22.08-8.79-1.68-1.1-3.29-2.26-4.85-3.57-1.55-1.33-3.01-2.86-4.18-4.65-1.13-1.8-1.96-3.97-1.86-6.21.09-2.24,1.01-4.28,2.56-5.81.26-.26.68-.25.94,0,.22.23.25.58.08.83l-.05.07c-.94,1.4-1.39,3.22-1.17,4.82.18,1.63,1,3.12,2.09,4.43,1.1,1.31,2.46,2.45,3.96,3.45,1.49,1.02,3.1,1.97,4.72,2.82,3.27,1.71,6.68,3.13,10.21,4.25,3.51,1.18,7.13,2.03,10.78,2.74,3.65.74,7.36,1.16,11.09,1.51,3.74.38,7.34.46,10.95.18,3.58-.32,7.11-1.01,10.38-2.28,1.63-.63,3.21-1.4,4.65-2.34.72-.47,1.4-.99,2.05-1.53.32-.27.64-.55.93-.83.27-.26.61-.64.74-.78l.35-.39c.77-.86,2.09-.94,2.95-.17.34.3.56.7.65,1.11.22.75.62,1.76,1.03,2.64.42.9.89,1.8,1.39,2.68,1.02,1.75,2.18,3.44,3.45,5.04,2.56,3.22,5.54,6.11,8.78,8.82,1.62,1.38,3.3,2.79,4.86,4.35,1.57,1.56,3.01,3.22,4.34,4.97,1.33,1.76,2.54,3.61,3.55,5.58,1.01,1.98,1.88,3.96,2.4,6.27.13.55-.22,1.1-.77,1.23-.54.12-1.07-.2-1.22-.72l-.03-.09Z"/>
      <path class="cls-38" d="M668.64,130.7c-.19,0-.37-.05-.55-.15-7.55-4.37-19.65-5.28-19.77-5.29-.6-.04-1.05-.57-1.01-1.17.04-.6.58-1.04,1.17-1.01.52.04,12.72.96,20.71,5.58.52.3.7.97.4,1.49-.2.35-.57.55-.95.55Z"/>
      <path class="cls-8" d="M851.16,424.84c-14.4,20.69,27.4,137.68,26.87,162.33-.52,24.66-32.35,142.16-32.35,142.16l96.52-142.68s-76.65-182.5-91.04-161.81Z"/>
      <path class="cls-23" d="M881.32,380.3s16.36,6.47,33.36,34.99c17,28.52,64.08,119.49,62.73,154.01-1.75,44.86-78.97,162.25-78.97,162.25l-53.54,1.62,54.07-145.47s-30.86-94.25-44.93-144.69c-15.34-55.02,27.27-62.71,27.27-62.71Z"/>
      <path class="cls-28" d="M844.45,733.14c-.13,0-.26-.02-.39-.07-.56-.21-.85-.84-.64-1.41l54.45-144.59c-2.7-7.47-43.35-120.42-47.8-162.12-2.01-18.84,6.16-28.17,6.51-28.56.4-.45,1.09-.48,1.54-.08.45.4.49,1.09.09,1.54-.08.09-7.86,9.06-5.96,26.86,4.56,42.65,47.39,160.79,47.82,161.98.09.24.09.51,0,.76l-54.59,144.97c-.17.44-.58.71-1.02.71Z"/>
      <path class="cls-11" d="M893.22,709.6c0-2.05,1.77-3.72,3.95-3.72s3.95,1.66,3.95,3.72-1.77,3.72-3.95,3.72-3.95-1.66-3.95-3.72Z"/>
      <path class="cls-11" d="M905.05,691.41c0-1.83,1.43-3.32,3.2-3.32s3.2,1.49,3.2,3.32-1.43,3.32-3.2,3.32-3.2-1.49-3.2-3.32Z"/>
      <path class="cls-23" d="M682.76,370.18s-.7,13.23-3.67,29.9c-2.96,16.67-8.19,36.78-8.19,36.78l25.71-3.18-12.28,25.06s11.92,30.95,24.06,68.45c12.13,37.5,24.48,81.55,24.48,81.55,0,0-4.4-108.08-12.3-170.8-7.9-62.72-18.72-79.82-18.72-79.82,0,0-5.91,3.31-9.54,5.47-3.62,2.16-9.56,6.59-9.56,6.59Z"/>
      <path class="cls-28" d="M732.87,609.83c-.48,0-.92-.32-1.05-.8-.12-.44-12.48-44.46-24.47-81.51-11.99-37.04-23.92-68.08-24.04-68.39-.11-.28-.1-.6.04-.87l11.39-23.25-23.71,2.93c-.36.04-.72-.09-.95-.36-.24-.27-.33-.64-.24-.99.05-.2,5.25-20.26,8.17-36.7,2.92-16.4,3.64-29.63,3.65-29.76.03-.6.55-1.06,1.15-1.03.6.03,1.06.55,1.03,1.15,0,.13-.74,13.48-3.68,30.03-2.46,13.86-6.53,30.26-7.81,35.31l24.12-2.98c.4-.05.79.13,1.02.45.23.33.27.76.09,1.12l-12.07,24.63c1.51,3.94,12.68,33.38,23.91,68.06,12,37.09,24.37,81.16,24.49,81.6.16.58-.17,1.18-.76,1.35-.1.03-.2.04-.29.04Z"/>
      <polygon class="cls-8" points="815.51 347.7 837.28 444.83 802.66 423.76 830.99 463.37 793.74 614.44 798.99 415.63 810.4 345.47 815.51 347.7"/>
      <path class="cls-23" d="M793.21,616.27s16.62-71.86,19.75-90.01c3.13-18.15,12.62-71.42,12.62-71.42l-16.59-26.02,22.61,8.52-19.81-91.29-19.85-8.08s-9.52,27.37-6.26,117.28c3.49,96.55,7.54,161.01,7.54,161.01Z"/>
      <path class="cls-28" d="M793.21,617.37c-.08,0-.16,0-.25-.03-.59-.14-.95-.72-.82-1.31.17-.72,16.65-72.04,19.74-89.95,2.95-17.09,11.65-65.95,12.55-71.01l-16.36-25.66c-.25-.4-.22-.91.07-1.28.3-.36.8-.5,1.23-.33l20.73,7.81-19.39-89.32c-.13-.59.25-1.17.84-1.3.59-.11,1.17.25,1.3.84l19.81,91.29c.08.39-.05.8-.35,1.06-.3.26-.72.34-1.1.2l-19.54-7.36,14.83,23.25c.15.23.2.51.15.78-.1.53-9.52,53.48-12.62,71.42-3.1,17.97-19.6,89.35-19.77,90.06-.12.5-.57.85-1.06.85Z"/>
      <path class="cls-11" d="M743.27,378.7c-31.87,0-39.62-14.14-39.93-14.76-.28-.54-.07-1.2.46-1.47.54-.28,1.19-.07,1.47.46.09.17,7.84,14.04,39.69,13.57,32.01-.5,43.25-20.97,43.36-21.18.28-.53.94-.73,1.48-.45.53.28.74.94.45,1.48-.12.22-11.97,21.82-45.25,22.34-.58,0-1.16.01-1.73.01Z"/>
      <path class="cls-32" d="M591.48,726.11c-57.65,0-105.38-29.3-136.38-55.3-36.99-31.02-58.77-64.15-58.98-64.49-.44-.67-.25-1.58.43-2.02.67-.44,1.58-.25,2.02.43.21.33,21.8,33.16,58.48,63.9,30.6,25.65,77.7,54.56,134.46,54.56,5.85,0,11.79-.31,17.84-.96,36.39-3.91,66.18-20.67,88.53-49.82,39.68-51.73,49.39-134.23,50.55-194.33,1.26-65.22-7-118.83-7.09-119.36-.12-.79.42-1.54,1.22-1.66.8-.12,1.54.42,1.66,1.22.08.54,8.39,54.39,7.12,119.87-1.17,60.53-11,143.68-51.16,196.04-22.86,29.81-53.32,46.95-90.54,50.94-6.15.66-12.22.97-18.17.97Z"/>
      <path class="cls-28" d="M893.94,760.29h-52.63c-.78,0-1.41-.63-1.41-1.41v-9.44c0-.78.63-1.41,1.41-1.41h52.63c.78,0,1.41.63,1.41,1.41v9.44c0,.78-.63,1.41-1.41,1.41ZM842.71,757.47h49.82v-6.63h-49.82v6.63Z"/>
      <path class="cls-17" d="M721.55,310.6c-.14,0-.28,0-.42,0-.28,0-1.59-.09-2.38-.14l-.55-.04c-.4-.02-.71-.37-.68-.77.02-.4.36-.73.77-.68l.56.04c.77.05,2.04.13,2.32.14.13,0,.26,0,.39,0,29.06,0,44.46-61.37,44.62-61.99.1-.39.49-.62.88-.53.39.1.63.49.53.88-.63,2.59-15.84,63.1-46.02,63.1Z"/>
      <rect class="cls-26" x="390.35" y="359.76" width="7.69" height="8.52"/>
      <rect class="cls-26" x="398.87" y="380.22" width="10.75" height="12.33"/>
      <g>
        <rect class="cls-45" x="462.13" y="373.49" width="17.84" height="25.18"/>
        <rect class="cls-45" x="459.85" y="368.77" width="22.38" height="6.82" rx="1.13" ry="1.13"/>
        <rect class="cls-10" x="462.13" y="375.59" width="17.84" height="3.58"/>
      </g>
      <g>
        <rect class="cls-45" x="494.3" y="373.49" width="17.84" height="25.18"/>
        <rect class="cls-45" x="492.03" y="368.77" width="22.38" height="6.82" rx="1.13" ry="1.13"/>
        <rect class="cls-10" x="494.32" y="375.59" width="17.84" height="3.58"/>
      </g>
      <g>
        <rect class="cls-45" x="525.25" y="373.49" width="17.84" height="25.18"/>
        <rect class="cls-45" x="522.98" y="368.77" width="22.38" height="6.82" rx="1.13" ry="1.13"/>
        <rect class="cls-10" x="525.27" y="375.59" width="17.84" height="3.58"/>
      </g>
      <g>
        <rect class="cls-45" x="340.77" y="276.68" width="17.84" height="25.18"/>
        <rect class="cls-45" x="338.5" y="271.96" width="22.38" height="6.82" rx="1.13" ry="1.13"/>
        <rect class="cls-10" x="340.8" y="278.77" width="17.84" height="3.58"/>
      </g>
      <g>
        <rect class="cls-45" x="371.72" y="276.68" width="17.84" height="25.18"/>
        <rect class="cls-45" x="369.45" y="271.96" width="22.38" height="6.82" rx="1.13" ry="1.13"/>
        <rect class="cls-10" x="371.75" y="278.77" width="17.84" height="3.58"/>
      </g>
      <rect class="cls-14" x="273.89" y="190.94" width="297.08" height="31.82"/>
      <rect class="cls-14" x="273.89" y="293.06" width="297.08" height="29.03"/>
      <rect class="cls-14" x="172.3" y="391.68" width="398.68" height="32.17"/>
      <path class="cls-21" d="M271.47,200.77h303.49c2.24,0,4.06,1.85,4.06,4.13v5.51c0,2.28-1.82,4.13-4.06,4.13h-303.49c-2.24,0-4.06-1.85-4.06-4.13v-5.51c0-2.28,1.82-4.13,4.06-4.13Z"/>
      <path class="cls-21" d="M271.47,301.31h303.49c2.24,0,4.06,1.85,4.06,4.13v5.51c0,2.28-1.82,4.13-4.06,4.13h-303.49c-2.24,0-4.06-1.85-4.06-4.13v-5.51c0-2.28,1.82-4.13,4.06-4.13Z"/>
      <rect class="cls-25" x="392.71" y="120.56" width="19.67" height="16.52"/>
      <path class="cls-21" d="M568.43,414.84H176.59c-10.12,0-18.36-8.24-18.36-18.36V98.01c0-10.12,8.24-18.36,18.36-18.36h391.85c10.12,0,18.36,8.24,18.36,18.36v298.47c0,10.12-8.24,18.36-18.36,18.36ZM176.59,95.89c-1.16,0-2.11.95-2.11,2.11v298.47c0,1.16.95,2.11,2.11,2.11h391.85c1.16,0,2.11-.95,2.11-2.11V98.01c0-1.16-.95-2.11-2.11-2.11H176.59Z"/>
      <path class="cls-23" d="M734.01,600.71c-.13,0-.26-.02-.4-.05-.77-.22-1.23-1.02-1.01-1.8,22.87-81.12,15.59-180.19,11.4-219.01-.09-.8.49-1.52,1.29-1.61.81-.09,1.52.49,1.61,1.29,4.21,38.99,11.52,138.5-11.49,220.12-.18.64-.77,1.06-1.4,1.06Z"/>
      <g>
        <path class="cls-11" d="M1057.66,797.21s-10.08-36.98-12.86-57.93c-2.78-20.95,1.74-25.89,1.74-25.89l2.7,4.85s-4.4-23.32-2.94-45.05c1.46-21.73,6.22-34.66,8.79-41.86,2.57-7.19,1.5,13.09,1.5,13.09,0,0,4.19-28.31,14.61-55.45,10.41-27.15,19.86-43.34,27.05-53.14,5.01-6.82-.13,12.64-.13,12.64,0,0,9.27-21.46,25.13-43.22,15.85-21.76,33.13-43.33,38.29-43.83,5.16-.5-11.63,52.99-11.63,52.99,0,0,15.01-13.4,13.15-1.92-1.86,11.48-20.6,47.85-20.6,47.85,0,0,19.48.05,18.3,11.09-1.18,11.04-23.03,33.05-23.03,33.05,0,0,15.01-7.31,12.63,4.92-2.38,12.23-22.16,44-22.16,44,0,0,9.17-6.21,5.31,5.36-3.86,11.57-20.75,40.92-20.75,40.92,0,0,12.46-6.7,2.58,16.53-9.88,23.23-37.3,64.4-42.1,76.38-4.8,11.98-15.56,4.61-15.56,4.61Z"/>
        <path class="cls-23" d="M1064.68,800.91c-4.14,0-7.66-2.37-7.84-2.49l-.44-.3-.14-.52c-.1-.37-10.14-37.31-12.9-58.12-2.79-21.02,1.6-26.51,2.11-27.06l1.19-1.3c-1.2-8.7-2.76-23.76-1.8-38.02,1.45-21.51,6.18-34.73,8.72-41.83l.15-.42c.33-.91,1-2.81,2.63-2.48.53.11,1.08.22,1.47,1.68,2.31-10.84,6.21-26.46,12.02-41.6,8.73-22.75,17.89-40.74,27.24-53.48.58-.79,1.94-2.65,3.57-1.87.58.28,1.47.7,1.17,4.37,4.31-8.37,11.25-20.72,20.25-33.08,14.52-19.93,33.13-43.82,39.33-44.42.7-.08,1.38.21,1.83.77,2.99,3.68-5.43,32.99-10.51,49.52,3.27-2.39,7.57-4.84,10.1-3.44,1.6.88,2.16,2.87,1.67,5.91-1.65,10.14-15.72,38.39-19.72,46.27,3.85.3,11.47,1.42,15.24,5.62,1.74,1.94,2.47,4.28,2.19,6.97-.91,8.47-12.87,22.54-19.36,29.62,2.49-.51,5.26-.58,7.14.87,1.9,1.46,2.5,4.02,1.8,7.61-1.93,9.92-14.66,31.77-20.02,40.66.99-.14,1.99-.02,2.79.59,2.21,1.68,1.25,5.54.32,8.3-3.16,9.47-14.67,30.23-19.12,38.1,1.12-.05,2.31.19,3.27,1.07,2.68,2.45,1.93,8.29-2.37,18.38-5.62,13.22-16.67,31.84-26.41,48.26-7.32,12.34-13.64,22.99-15.68,28.09-1.58,3.94-3.95,6.42-7.05,7.36-.96.29-1.92.41-2.85.41ZM1058.92,796.27c1.19.69,4.61,2.4,7.78,1.43,2.2-.67,3.94-2.57,5.18-5.65,2.13-5.31,8.5-16.05,15.88-28.49,9.7-16.35,20.69-34.87,26.23-47.91,5.22-12.27,3.48-14.72,3.08-15.09-.79-.72-2.83-.02-3.63.41l-4.5,2.42,2.55-4.43c.17-.29,16.86-29.35,20.63-40.65,1.42-4.25.69-5.05.68-5.05-.37-.28-2.23.3-3.79,1.36l-5.68,3.84,3.62-5.82c.2-.32,19.66-31.68,21.97-43.51.32-1.66.46-3.84-.72-4.75-2.03-1.56-7.51.28-9.84,1.41l-7.71,3.76,6.04-6.09c.21-.22,21.5-21.78,22.61-32.18.2-1.85-.28-3.39-1.46-4.71-4.18-4.67-15.29-4.77-15.4-4.77h-2.38s1.09-2.12,1.09-2.12c.19-.36,18.65-36.29,20.46-47.42.34-2.1-.02-2.8-.19-2.89-1.2-.65-6.22,2.27-10.54,6.13l-3.94,3.52,1.58-5.04c6.9-21.97,13.24-46.25,12.55-50.93-3.67,1.56-15.1,13.49-36.64,43.07-15.57,21.37-24.88,42.73-24.97,42.94l-2.75-.95c.99-3.75,1.9-8.09,2.19-10.69-9.01,12.48-17.87,30-26.34,52.08-10.23,26.68-14.48,54.86-14.53,55.15l-2.9-.29c.17-3.16.25-6.68.21-9.37-2.67,7.66-6.33,19.6-7.59,38.32-1.43,21.29,2.87,44.45,2.92,44.68l1.66,8.81-5.7-10.23c-.98,3.02-2.1,9.63-.39,22.53,2.55,19.23,11.41,52.49,12.67,57.18Z"/>
      </g>
      <g class="cls-12">
        <path class="cls-23" d="M1072.96,739.87c-.46-.03-.76-.38-.73-.78.09-1.11,8.91-111.76,52.39-181.12.21-.34.66-.44,1-.23.34.21.44.66.23,1-43.28,69.06-52.08,179.35-52.17,180.46-.03.38-.35.67-.73.67Z"/>
        <path class="cls-23" d="M1098.88,613s-.1,0-.14-.01c-.4-.08-.65-.46-.57-.86.03-.13,2.49-13.02-4.7-24.08-.22-.34-.12-.79.21-1.01.33-.22.79-.13,1.01.21,7.52,11.56,5.02,24.61,4.91,25.16-.07.35-.37.58-.71.58Z"/>
        <path class="cls-23" d="M1077.83,701.23s-.07,0-.11,0c-.4-.06-.67-.43-.62-.83.01-.08,1.12-8.08-1.52-18.04-.1-.39.13-.79.52-.89.4-.11.79.13.89.52,2.72,10.26,1.6,18.28,1.55,18.62-.05.36-.36.62-.72.62Z"/>
        <path class="cls-23" d="M1090.78,644.87c-.07,0-.14-.01-.21-.03-.39-.11-.61-.52-.49-.9.15-.5,3.7-12.22,13.96-19.42.33-.23.78-.15,1.01.18.23.33.15.78-.18,1.01-9.83,6.9-13.36,18.52-13.4,18.64-.09.32-.38.52-.7.52Z"/>
      </g>
      <path class="cls-47" d="M307.29,605.57l-.94-1.11c9.79-8.29,19.91-16.86,27.67-26.39,4.24-5.21,14.17-18.88,14.93-33.37.46-8.86,1.1-18.28,3.34-27.44l1.42.34c-2.21,9.04-2.84,18.38-3.3,27.17-.78,14.92-10.93,28.9-15.25,34.21-7.84,9.64-18.02,18.25-27.86,26.58Z"/>
      <path class="cls-33" d="M181.55,803.69h506.02c7.26,0,13.15,5.89,13.15,13.15v63.94H168.39v-63.94c0-7.26,5.89-13.15,13.15-13.15Z"/>
      <rect class="cls-7" x="168.39" y="824.88" width="532.33" height="55.9"/>
      <g>
        <path class="cls-6" d="M254.83,803.99s-12.59,5.25,7.69,11.19c49.14,14.6,129.4-5.68,141.99-5.6,12.59.09,51.06,8.92,73.79,6.3,22.73-2.62,6.64-12.24,6.64-12.24l-230.11.35Z"/>
        <path class="cls-46" d="M406.07,744.37s9.12-1.2,18.36,4.15c5.79,3.35,5.81,7.3,5.81,7.3,0,0,15.52-2.45,27.66,6.99,15.29,11.89,13.04,23.92,13.04,23.92,0,0,12.36,6.15,13.12,13.73.49,4.92-10.96,5.94-10.96,5.94,0,0,7.49,4.56-1.96,5.09-26.88,1.51-48.3-5.31-62.82-5.62-32.61-.7-98.38,20.5-134.62,7.44-16.62-5.99-38.2-19.43-30.7-44.12,6.48-21.32,25.98-24.61,25.98-24.61,0,0-32.43-44.84,1.77-101.81,7.46-12.43,18.38-22.62,29.74-32.38l.45-.47s9.96-10.34,34.89-2.83c15.65,4.71,20.61,13.04,28,20.68,8.08,8.34,20.08,2.87,29.08,22.58,17.34,37.99-8.69,56.38-8.69,56.38,0,0,1.37,9.29-1.38,19.48-2.75,10.19-9.63,21.29-9.63,21.29,0,0,7.35-1.9,15.44-2.9,10.54-1.3,17.03-.17,17.03-.17l.39-.08Z"/>
        <path class="cls-23" d="M320.64,684.65c5.7-8.6,30.37-4.41,39.19,6.69,8.82,11.1-14.9,35.37-26.76,33.3-11.86-2.06-9.25-9.29-9.76-14.08-.62-5.82-9.86-15.07-2.67-25.92Z"/>
        <path class="cls-19" d="M286.4,754.8s10.2,3.47,35.54-3.78c23.42-6.7,37.02-17.55,58.4-22.17,19.26-4.16,27.21,4.17,27.21,4.17l-2.16,11.44s-4.74-1.2-19.44.57c-19.32,2.32-32.22,11.01-57.08,13.7-29.84,3.22-42.46-3.91-42.46-3.91Z"/>
        <path class="cls-16" d="M471.61,788.57c-.23,0-.46-.05-.67-.17-5.22-2.73-12.23-3.46-12.3-3.47-.8-.08-1.38-.8-1.3-1.6.08-.8.79-1.37,1.6-1.3.31.03,7.63.8,13.36,3.79.71.37.99,1.25.62,1.97-.26.5-.77.78-1.29.78Z"/>
        <path class="cls-16" d="M373.5,749.58c-.53,0-1.06-.19-1.48-.58-.89-.82-.94-2.2-.12-3.09.15-.17,15.47-17.45,9-52.57-6.67-36.19-28.42-43.72-29.35-44.02-1.14-.38-1.77-1.61-1.4-2.75.37-1.15,1.6-1.78,2.74-1.41,1.02.33,25.14,8.48,32.3,47.39,6.89,37.41-9.39,55.57-10.09,56.33-.43.47-1.02.7-1.61.7Z"/>
        <path class="cls-16" d="M295.58,673.45s-.1,0-.15,0c-.8-.08-1.38-.79-1.3-1.58.02-.23.61-5.68,6.73-9.42.69-.42,1.58-.2,2,.48.42.69.2,1.58-.48,2-4.82,2.95-5.33,7.05-5.35,7.22-.08.75-.71,1.3-1.45,1.3Z"/>
        <path class="cls-16" d="M279.38,697.81c-.78,0-1.43-.62-1.46-1.4,0-.25-.19-6.24,3.23-10,.54-.59,1.46-.64,2.06-.1.59.54.64,1.46.1,2.06-2.63,2.89-2.48,7.88-2.47,7.93.03.81-.6,1.48-1.4,1.51-.02,0-.04,0-.06,0Z"/>
        <path class="cls-16" d="M298.85,696s-.06,0-.09,0c-.8-.05-1.41-.73-1.37-1.54.01-.25.39-6.13,4.44-9.25.64-.49,1.55-.37,2.04.27.49.64.37,1.55-.27,2.04-2.98,2.3-3.31,7.06-3.31,7.11-.05.77-.69,1.37-1.45,1.37Z"/>
        <path class="cls-47" d="M338.99,712.17c-.33,0-.65-.11-.93-.33-.62-.51-.71-1.43-.2-2.05.05-.07,1.52-1.94,1.31-4.95-.05-.8.55-1.5,1.36-1.55.82,0,1.5.55,1.55,1.36.28,4.21-1.88,6.88-1.97,7-.29.35-.71.53-1.13.53Z"/>
        <path class="cls-16" d="M313.74,760.63c-14.66,0-23.67-3.03-24.13-3.19-.76-.26-1.16-1.09-.9-1.85.26-.76,1.09-1.17,1.85-.9.13.05,13.48,4.52,33.8,2.5,20.53-2.04,48.71-10.74,49-10.82.76-.23,1.58.19,1.82.96.24.77-.19,1.59-.96,1.82-.28.09-28.74,8.87-49.57,10.94-3.91.39-7.56.55-10.91.55Z"/>
        <path class="cls-23" d="M384.42,807.75c-28.69,3.91-66.19,12.29-94.54,9.14-.05,0-.01-.02-.06-.02l-.48-.1s.14-9.2,8.66-13.34c8.52-4.13,10.45-1.06,25.43-3.2,9.04-1.29,15.49-8.68,34.32-6.33,15.26,1.91,26.71,14.11,26.71,14.11l-.04-.26Z"/>
      </g>
      <path class="cls-39" d="M488.84,618.05l-24.26-11.07s-17,5.91-25.77,4.84c-12.06-1.47-36.61-10.97-36.48-16.32.14-5.35,29.62,6.09,32.85-3.83,3.23-9.91-16.41-20.51-20.25-20.1-3.43.37-17.57,12.21-24.34,14.55-6.77,2.33-2.73-5.22-2.73-5.22,0,0-8.14,1.98-1.4-6.62,6.74-8.6,21.79-27.12,28.37-27.77,12.56-1.24,60.31,38.51,60.31,38.51l13.37,5.61.33,27.41Z"/>
      <polygon class="cls-50" points="488.51 590.64 488.84 618.05 481.83 614.86 482.48 587.99 488.51 590.64"/>
      <path class="cls-50" d="M387.93,581.58c-.17,0-.35-.06-.49-.18-.3-.27-.33-.73-.06-1.03.75-.84,18.38-20.49,25.73-24.12,3.31-1.63,13.37,3.92,15.35,5.05.35.2.47.64.27.99-.2.35-.65.47-.99.27-4.33-2.47-11.96-6.01-13.99-5.01-7.1,3.51-25.11,23.58-25.29,23.78-.14.16-.34.24-.54.24Z"/>
    </g>
  </g>
</svg>